/* XPM */
static char * door_wbg_o_xpm[] = {
"64 64 11 1",
" 	c #D5CC9E",
".	c #D9D4A3",
"+	c #252241",
"@	c #2C3068",
"#	c #5CA6E1",
"$	c #3C5393",
"%	c #6C2B44",
"&	c #96515E",
"*	c #433986",
"=	c #ADA9C7",
"-	c #696DB1",
"                              ..  ..............................",
"                             ...   .............................",
"                            ....    ............................",
"                           .....     ...........................",
"                         +++++++++++++..........................",
"                     + ++@@@@@@+@@@@@@++.+......................",
"                   ++@+@@#####@+@#####@@+@++....................",
"                 ++@@@+@@$$$$$@+@$$$$$@@+@@@++..................",
"                +@@##@@+@$$$$$@+@$$$$$@+@@##@@+.................",
"               +@##$$#@+@@$$$$@+@$$$$@@+@#$$##@+................",
"             ++@#$$$$$@@+@@@@@@+@@@@@@+@@$$$$$#@++..............",
"            +@@#$$$$$$@@++@@@@+++@@@@@+@@$$$$$$#@@+.............",
"           +@+@@$$$$$@@+++++++++++++++++@@$$$$$@@+@+............",
"           +@@+@@$$$@@+++++++++++++++++++@@$$$@@+@@+............",
"          +@##@+@@@@@+++++++++++++++++++++@@@@@+@##@+...........",
"          +@$$#@+@@@+++++++++++++++++++++++@@@+@#$$@+...........",
"         +@#$$$#@+++++++++++++++++++++++++++++@#$$$#@+..........",
"         +@$$$$$@++++%++++++++++++++++++++++++@$$$$$@+..........",
"        +@@@$$$@@+++%%%+++++++++++++++++++++++@@$$$@@@+.........",
"        +@@@@@@@+++&%%%++++++++++++++++++++++++@@@@@@@+.........",
"         +++@@@+++&&%%%+%+++++++++++++++++++++++@@@+++..........",
"        +@@@++++++&&%%%+%++++++++++++++++++++++++++@@@+.........",
"        +@@@@@+++&&&%%%+%++++++++++++++++++++++++@@@@@+ ........",
"       .+@###@@++&&&%%%+%+++++++++++++++++++++++@@###@+  .......",
"      ..+@$$$#@++&&&%%%+%+++++++++++++++++++++++@#$$$@+   ......",
"     ...+@$$$$@++&&&%%%+%+++++++++++++++++++++++@$$$$@+    .....",
"    ....+@$$$$@++&&&%%%+%+++++++++++++++++++++++@$$$$@+     ....",
"   .....+@$$$$@+++++++%+%+++++++++++++++++++++++@$$$$@+      ...",
"  ......+@@@@@@++****+++%+++++++++++++++++++++++@@@@@@+       ..",
" .......+@@@@@++*====*++%++++++++++++++++++++++++@@@@@+        .",
".........+++++++*----**+%+++++++++++++++++++++++++++++          ",
"........+@@@@@++*----**+%++++++++++++++++++++++++@@@@@+         ",
"        +@####@+**---**+%+++++++++++++++++++++++@####@+.........",
"        +@$$$$@+******++%+++++++++++++++++++++++@$$$$@+.........",
".       +@$$$$@++****+++%+++++++++++++++++++++++@$$$$@+........ ",
"..      +@$$$$@+++++++%+%+++++++++++++++++++++++@$$$$@+.......  ",
"...     +@$$$$@++&&&%%%+%+++++++++++++++++++++++@$$$$@+......   ",
"....    +@@@@@@++&&&%%%+%+++++++++++++++++++++++@@@@@@+.....    ",
".....   +@@@@@+++&&&%%%+%++++++++++++++++++++++++@@@@@+....     ",
"......   ++++++++&&&%%%+%+++++++++++++++++++++++++++++....      ",
"....... +@@@@@+++&&&%%%+%++++++++++++++++++++++++@@@@@+..       ",
"........+@####@++&&&%%%+%+++++++++++++++++++++++@####@+.        ",
"........+@$$$$@++&&&%%%+%+++++++++++++++++++++++@$$$$@+         ",
"........+@$$$$@++&&&%%%+%+++++++++++++++++++++++@$$$$@+         ",
"........+@$$$$@++&&&%%%+%+++++++++++++++++++++++@$$$$@+         ",
"........+@$$$$@+++++++%+%+++++++++++++++++++++++@$$$$@+         ",
"........+@$$$$@++****+++%+++++++++++++++++++++++@$$$$@+         ",
"........+@@@@@@+*====*++%+++++++++++++++++++++++@@@@@@+         ",
"........+@@@@@++*----**+%++++++++++++++++++++++++@@@@@+         ",
".........+++++++*----**+%+++++++++++++++++++++++++++++          ",
"........+@@@@@++**---**+%++++++++++++++++++++++++@@@@@+         ",
"........+@####@+******++%+++++++++++++++++++++++@####@+         ",
"........+@$$$$@++****+++%+++++++++++++++++++++++@$$$$@+         ",
"........+@$$$$@+++++++%+%+++++++++++++++++++++++@$$$$@+         ",
"........+@@@@@+++&&&%%%+%++++++++++++++++++++++++@@@@@+         ",
".........++++++++&&&%%%+++++++++++++++++++++++++++++++          ",
"........+@@@@@+++&&&%%+++++++++++++++++++++++++++@@@@@+         ",
"........+@$##$@++&&&%+++++++++++++++++++++++++++@$##$@+         ",
".......++@@@@@+++++++++++++++++++++++++++++++++++@@@@@++        ",
"......+++++++++++++++++++++++++++++++++++++++++++++++++++       ",
"...........................     .....                           ",
"............................    ....                            ",
".............................   ...                             ",
"..............................  ..                              "};
