/* XPM */
static char * pj_with_bg_xpm[] = {
"64 64 69 1",
" 	c #D5CC9E",
".	c #D9D4A3",
"+	c #CFC69A",
"@	c #C2BA91",
"#	c #BBB38B",
"$	c #C6C296",
"%	c #D3CE9F",
"&	c #979173",
"*	c #75705C",
"=	c #77745F",
"-	c #9A9676",
";	c #C6C195",
">	c #BBB38C",
",	c #77715D",
"'	c #211F30",
")	c #6A6756",
"!	c #A7A37F",
"~	c #CC3048",
"{	c #CD4650",
"]	c #BFBA90",
"^	c #797660",
"/	c #BEBA90",
"(	c #7A7760",
"_	c #BFBB91",
":	c #BA570B",
"<	c #CE8B16",
"[	c #6B6857",
"}	c #BCB48C",
"|	c #BAB28A",
"1	c #BAB289",
"2	c #C2BA90",
"3	c #CFC79A",
"4	c #464340",
"5	c #77725E",
"6	c #C6C194",
"7	c #BFBA8F",
"8	c #BDB98E",
"9	c #D09D4E",
"0	c #E1CA33",
"a	c #CF9A4C",
"b	c #A49D7C",
"c	c #BBB38A",
"d	c #E0CB43",
"e	c #F7EC8A",
"f	c #E0CA40",
"g	c #CF9A4B",
"h	c #D4CF9F",
"i	c #D09C4E",
"j	c #D0C79A",
"k	c #E1CB3F",
"l	c #E0CA3E",
"m	c #C07C4C",
"n	c #000000",
"o	c #C07D4C",
"p	c #BC642C",
"q	c #6CD9F1",
"r	c #FFFFFF",
"s	c #BF7949",
"t	c #C3BA91",
"u	c #C07A4A",
"v	c #BC632A",
"w	c #BC6227",
"x	c #BC6329",
"y	c #D0C79B",
"z	c #696454",
"A	c #44413F",
"B	c #CE902E",
"C	c #413E3E",
"D	c #BC662E",
"                              ..  ..............................",
"                             ...   .............................",
"                            ....    ............................",
"                       +@##$%...     ...........................",
"                       @&*=-;...      ..........................",
"                       >,'')!;%.       .........................",
"                       #='~{)-$.        ........................",
"                       ]^'~~'^].         .......................",
"                      .]^'~~'=/.          ......................",
"                     ..]^'~~'(_.           .....................",
"                    ...]^::::^].            ....................",
"                   ...._(:<<:[!]}>>>>>|1|23  ...................",
"                  .....]^:<<:4[^5,,,,,,*,&@   ..................",
"                 ..%678!9<0<<:::::::::<<<ab1c23.................",
"                ...;-(=9deee0000000000eeefg*5&@ ................",
"               ..h6!i<<0eeee0000000000eeee0<<gb2j...............",
"              ...6-ikeee000000000000000000eeelg&2 ..............",
"             ..h6!i0eeee000000000000000000eeee0gb2j.............",
"            ...6-ike00000000000000000000000000elg&2 ............",
"           ..%;!i0ee00000000000000000000000000ee0gb2j...........",
"          ...6-ike00000000<::::::::::::::::::<00elg&2 ..........",
"         ....7(<ee0000000<:'''''''''''''''''':<0ee0gb@3.........",
"        ...../=:00000000<:'''''''''''''''''''':<00elg&2 ........",
"       ....%;!m<0000000<:''''''''''''''''''''n':<0ee<,|  .......",
"      .....$-op<000000<:'''''''''''''''''''''''':<00:*#   ......",
"     ......]^:<<000000:'''~qq~''''''''''''''~qq~':00:,>    .....",
"    ......./=:<<000000:''~erre~''''''''''''~erre~:00:,>     ....",
"   ........]^:<<000000:''qrrrrq''''''''''''qrrrrq:00:,>      ...",
"  .........]^:<<000000:''qqqqqq''''''''''''qqqqqq:00:,>       ..",
" ..........]^:<<000000:''qqqqqq''''''''''''qqqqqq:00:,>        .",
"...........]^:<<000000:''qrrrrq''''''''''''qrrrrq:00:,>         ",
"...........]^:<<000000:''~erre~''''''''''''~erre~:00:,>         ",
"           >,:<<000000:'''~qq~''''''''''''''~qq~':00:^].........",
"           >,:<<000000<:'''''''''''''''''''''''':<00:^].........",
".          >,:<<0000000<:''''''''''''''''''''n':<000:^]........ ",
"..         }5:<<00000000<:'''''''''''''''''''':<000<:(_.......  ",
"...        >,:<<000000000<:'''''''''''''''''':<000<:'^]......   ",
"....     3@bs::<0000000000<::::::::::::::::::<000<:::m!;%...    ",
".....    t&uv:::<0000000000000000000000000000000<::<<po-$..     ",
"......   >,:<<:::<00000000000000000000000000000<::<<<<:^].      ",
".......  #*:<<<<::<<<00000000000000000000000000<::<<<<:=/       ",
"........ #*:<<00<::<<<00000000000000000000000<<:':<<<<:=#       ",
".........>,:<<000<::::<<<00000000<<<<<<<000<<::'':<<<<:,>       ",
".........$&sw<0000<::<<<<0000000<<<<<<<<<0<<<:''':<<<xs&t       ",
".........%;bs:<0000000000000000<0000000<<<000<:':<<<:sb@3       ",
"...........$&sw<<0000000000000<000000000<<0000:':<<xs&t         ",
"...........h$bs::::<<00000000<0000000000<<0000:''::sbty         ",
".............;&5*zA:<<000000<<0000000000<<0000:4[=5&@           ",
".............%$}#bz:<<000000<<0000000000<<0000:[!#}t3           ",
"................ >,:<<000000<<0000000000<<0000:^>               ",
".................}5:<<000000<<0000000000<<0000:5}               ",
"................./*:<<000000<<0000000000<<0000:5}               ",
".................]^:<<000000<<0000000000<<0000:,>               ",
".................$-mw<000000<<<00000000<<<0000<sb@3             ",
".................%;!m:<00000<::::::::<<<:<00000Bu&t             ",
"...................$-mw<000<:''C)^((^oD::<000000:,>             ",
"...................h$!m:<<<<<:'z!]__]!o:':000000:*#             ",
".....................$-mw<<<<ws&$..../=''<000000:,>             ",
".....................h$!m::::sbth...._(':<000000:,>             ",
".......................;-^**,&@ .....$&sw<000000:*#             ",
".......................%$]/#>t3 .....3@bs:<00000:,>             ",
"............................    ....   t&uv<<00Bu&t             ",
".............................   ...    ytbs::::sb@3             ",
"..............................  ..       >,'''',>               "};
