/* XPM */
static char *_66eb2eb7f164baec65ad303a458efa8UroSMBL9krSg5kKp[] = {
/* columns rows colors chars-per-pixel */
"64 64 2 1 ",
"  c #D5B195",
". c #D8BD9B",
/* pixels */
"................                                ................",
" ................                              ................ ",
"  ................                            ................  ",
"   ................                          ................   ",
"    ................                        ................    ",
"     ................                      ................     ",
"      ................                    ................      ",
"       ................                  ................       ",
"        ................                ................        ",
"         ................              ................         ",
"          ................            ................          ",
"           ................          ................           ",
"            ................        ................            ",
"             ................      ................             ",
"              ................    ................              ",
"               ................  ................               ",
".               ................................               .",
"..               ..............................               ..",
"...               ............................               ...",
"....               ..........................               ....",
".....               ........................               .....",
"......               ......................               ......",
".......               ....................               .......",
"........               ..................               ........",
".........               ................               .........",
"..........               ..............               ..........",
"...........               ............               ...........",
"............               ..........               ............",
".............               ........               .............",
"..............               ......               ..............",
"...............               ....               ...............",
"................               ..               ................",
"................               ..               ................",
"...............               ....               ...............",
"..............               ......               ..............",
".............               ........               .............",
"............               ..........               ............",
"...........               ............               ...........",
"..........               ..............               ..........",
".........               ................               .........",
"........               ..................               ........",
".......               ....................               .......",
"......               ......................               ......",
".....               ........................               .....",
"....               ..........................               ....",
"...               ............................               ...",
"..               ..............................               ..",
".               ................................               .",
"               ................  ................               ",
"              ................    ................              ",
"             ................      ................             ",
"            ................        ................            ",
"           ................          ................           ",
"          ................            ................          ",
"         ................              ................         ",
"        ................                ................        ",
"       ................                  ................       ",
"      ................                    ................      ",
"     ................                      ................     ",
"    ................                        ................    ",
"   ................                          ................   ",
"  ................                            ................  ",
" ................                              ................ ",
"................                                ................"
};
