/* XPM */
static char *_c3f422e63fe416fa2e694913298b51bSr02n8Sl5RPNfFWg[] = {
/* columns rows colors chars-per-pixel */
"64 64 2 1 ",
"  c #D9D4A3",
". c #D5CC9E",
/* pixels */
"..............................  ..                              ",
".............................   ...                             ",
"............................    ....                            ",
"...........................     .....                           ",
"..........................      ......                          ",
".........................       .......                         ",
"........................        ........                        ",
".......................         .........                       ",
"......................          ..........                      ",
".....................           ...........                     ",
"....................            ............                    ",
"...................             .............                   ",
"..................              ..............                  ",
".................               ...............                 ",
"................                ................                ",
"...............                 .................               ",
"..............                  ..................              ",
".............                   ...................             ",
"............                    ....................            ",
"...........                     .....................           ",
"..........                      ......................          ",
".........                       .......................         ",
"........                        ........................        ",
".......                         .........................       ",
"......                          ..........................      ",
".....                           ...........................     ",
"....                            ............................    ",
"...                             .............................   ",
"..                              ..............................  ",
".                               ............................... ",
"                                ................................",
"                                ................................",
"................................                                ",
"................................                                ",
" ...............................                               .",
"  ..............................                              ..",
"   .............................                             ...",
"    ............................                            ....",
"     ...........................                           .....",
"      ..........................                          ......",
"       .........................                         .......",
"        ........................                        ........",
"         .......................                       .........",
"          ......................                      ..........",
"           .....................                     ...........",
"            ....................                    ............",
"             ...................                   .............",
"              ..................                  ..............",
"               .................                 ...............",
"                ................                ................",
"                 ...............               .................",
"                  ..............              ..................",
"                   .............             ...................",
"                    ............            ....................",
"                     ...........           .....................",
"                      ..........          ......................",
"                       .........         .......................",
"                        ........        ........................",
"                         .......       .........................",
"                          ......      ..........................",
"                           .....     ...........................",
"                            ....    ............................",
"                             ...   .............................",
"                              ..  .............................."
};
