/* XPM */
static char * enemy1_xpm[] = {
"64 64 63 1",
" 	c #D5CC9E",
".	c #D9D4A3",
"+	c #CFC699",
"@	c #C2BA90",
"#	c #BAB28A",
"$	c #C6C195",
"%	c #D3CE9F",
"&	c #969070",
"*	c #736F58",
"=	c #75735A",
"-	c #999674",
";	c #BBB38B",
">	c #757059",
",	c #111620",
"'	c #676550",
")	c #A6A27D",
"!	c #2F3E5D",
"~	c #475062",
"{	c #BEBA8F",
"]	c #77755B",
"^	c #BEB98F",
"/	c #78755C",
"(	c #BFBB90",
"_	c #324465",
":	c #2954A3",
"<	c #686651",
"[	c #BBB48B",
"}	c #BAB289",
"|	c #CFC79A",
"1	c #404037",
"2	c #757159",
"3	c #C6C194",
"4	c #BFBA8F",
"5	c #BDB98E",
"6	c #6C7BA3",
"7	c #0D62FF",
"8	c #6B78A2",
"9	c #A39C7A",
"0	c #BBB38A",
"a	c #3F6FFA",
"b	c #3625FF",
"c	c #3A6CFB",
"d	c #6A77A2",
"e	c #D4CF9F",
"f	c #6C7AA3",
"g	c #D0C79A",
"h	c #386CFB",
"i	c #376BFB",
"j	c #6E7374",
"k	c #000000",
"l	c #6F7474",
"m	c #4B566A",
"n	c #6D36FF",
"o	c #6C7073",
"p	c #6D7073",
"q	c #4A5569",
"r	c #485369",
"s	c #485469",
"t	c #66624F",
"u	c #3F3E36",
"v	c #4561A3",
"w	c #3B3B33",
"x	c #4E586B",
"                              ..  ..............................",
"                             ...   .............................",
"                            ....    ............................",
"                       +@##$%...     ...........................",
"                       @&*=-$...      ..........................",
"                       ;>,,')$%.       .........................",
"                       #=,!~'-$.        ........................",
"                       {],!!,]{.         .......................",
"                      .{],!!,=^.          ......................",
"                     ..{],!!,/(.           .....................",
"                    ...{]____]{.            ....................",
"                   ....(/_::_<){[;;;;;#}#@|  ...................",
"                  .....{]_::_1<]2>>>>>>*>&@   ..................",
"                 ..%345)6:7::_________:::89}0@|.................",
"                ...$-/=6abbb7777777777bbbcd*2&@ ................",
"               ..e3)f::7bbbb7777777777bbbb7::d9@g...............",
"              ...3-fhbbb777777777777777777bbbid&@ ..............",
"             ..e3)f7bbbb777777777777777777bbbb7d9@g.............",
"            ...3-fhb77777777777777777777777777bid&@ ............",
"           ..%$)f7bb77777777777777777777777777bb7d9@g...........",
"          ...3-fhb77777777:__________________:77bid&@ ..........",
"         ....4/:bb7777777:_,,,,,,,,,,,,,,,,,,_:7bb7d9@|.........",
"        .....^=_77777777:_,,,,,,,,,,,,,,,,,,,,_:77bid&@ ........",
"       ....%$)j:7777777:_,,,,,,,,,,,,,,,,,,,,k,_:7bb:>#  .......",
"      .....$-lm:777777:_,,,,,,,,,,,,,,,,,,,,,,,,_:77_*#   ......",
"     ......{]_::777777_,,,!77!,,,,,,,,,,,,,,!77!,_77_>;    .....",
"    .......^=_::777777_,,!bnnb!,,,,,,,,,,,,!bnnb!_77_>;     ....",
"   ........{]_::777777_,,7nnnn7,,,,,,,,,,,,7nnnn7_77_>;      ...",
"  .........{]_::777777_,,777777,,,,,,,,,,,,777777_77_>;       ..",
" ..........{]_::777777_,,777777,,,,,,,,,,,,777777_77_>;        .",
"...........{]_::777777_,,7nnnn7,,,,,,,,,,,,7nnnn7_77_>;         ",
"...........{]_::777777_,,!bnnb!,,,,,,,,,,,,!bnnb!_77_>;         ",
"           ;>_::777777_,,,!77!,,,,,,,,,,,,,,!77!,_77_]{.........",
"           ;>_::777777:_,,,,,,,,,,,,,,,,,,,,,,,,_:77_]{.........",
".          ;>_::7777777:_,,,,,,,,,,,,,,,,,,,,k,_:777_]{........ ",
"..         [2_::77777777:_,,,,,,,,,,,,,,,,,,,,_:777:_/(.......  ",
"...        ;>_::777777777:_,,,,,,,,,,,,,,,,,,_:777:_,]{......   ",
"....     |@9o__:7777777777:__________________:777:___j)$%...    ",
".....    @&pq___:7777777777777777777777777777777:__::ml-$..     ",
"......   ;>_::___:77777777777777777777777777777:__::::_]{.      ",
".......  #*_::::__:::77777777777777777777777777:__::::_=^       ",
"........ #*_::77:__:::77777777777777777777777::_,_::::_=#       ",
".........;>_::777:____:::77777777:::::::777::__,,_::::_>;       ",
".........$&or:7777:__::::7777777:::::::::7:::_,,,_:::so&@       ",
".........%$9o_:7777777777777777:7777777:::777:_,_:::_o9@|       ",
"...........$&or::7777777777777:777777777::7777_,_::so&@         ",
"...........e$9o____::77777777:7777777777::7777_,,__o9@g         ",
".............$&2*tu_::777777::7777777777::7777_1<=2&@           ",
".............%$[#9t_::777777::7777777777::7777_<)#[@|           ",
"................ ;>_::777777::7777777777::7777_];               ",
".................[2_::777777::7777777777::7777_2[               ",
".................^*_::777777::7777777777::7777_2[               ",
".................{]_::777777::7777777777::7777_>;               ",
".................$-jr:777777:::77777777:::7777:o9@|             ",
".................%$)j_:77777:________:::_:77777vp&@             ",
"...................$-jr:777:_,,w']//]lx__:777777_>;             ",
"...................e$)j_:::::_,t){(({)l_,_777777_*#             ",
".....................$-jr::::ro&$....^=,,:777777_>;             ",
".....................e$)j____o9@e....(/,_:777777_>;             ",
".......................$-]**>&@ .....$&or:777777_*#             ",
".......................%${^#;@| .....|@9o_:77777_>;             ",
"............................    ....   @&pq::77vp&@             ",
".............................   ...    g@9o____o9@|             ",
"..............................  ..       ;>,,,,>;               "};
