/* XPM */
static char * item_chest_xpm[] = {
"64 64 284 2",
"  	c #D5CC9E",
". 	c #D9D4A3",
"+ 	c #CFC79A",
"@ 	c #C3BA92",
"# 	c #BBB38D",
"$ 	c #BBB38C",
"% 	c #C6C297",
"& 	c #D3CF9F",
"* 	c #BEBA90",
"= 	c #C6C296",
"- 	c #D3CE9F",
"; 	c #C2BA92",
"> 	c #989177",
", 	c #777264",
"' 	c #767063",
") 	c #7A7666",
"! 	c #9B977A",
"~ 	c #C6C196",
"{ 	c #A49D82",
"] 	c #6B6569",
"^ 	c #34305F",
"/ 	c #3B3B68",
"( 	c #3A3A64",
"_ 	c #2E2C50",
": 	c #6B685E",
"< 	c #A7A382",
"[ 	c #BFBA91",
"} 	c #BFBB92",
"| 	c #BEBA91",
"1 	c #BCB48E",
"2 	c #A49D7E",
"3 	c #6A655D",
"4 	c #2E2C4F",
"5 	c #40406D",
"6 	c #40406E",
"7 	c #727077",
"8 	c #A9A589",
"9 	c #4C4572",
"0 	c #474384",
"a 	c #565795",
"b 	c #52558C",
"c 	c #44424B",
"d 	c #6A675D",
"e 	c #7A7767",
"f 	c #787365",
"g 	c #68635B",
"h 	c #43404B",
"i 	c #5D609D",
"j 	c #606290",
"k 	c #332F5E",
"l 	c #454283",
"m 	c #56559C",
"n 	c #6265AA",
"o 	c #5C5F9D",
"p 	c #3F406E",
"q 	c #242241",
"r 	c #22203E",
"s 	c #2B2141",
"t 	c #372141",
"u 	c #442644",
"v 	c #4F2D48",
"w 	c #54314A",
"x 	c #4F2E48",
"y 	c #452844",
"z 	c #3F406D",
"A 	c #686DB1",
"B 	c #6466AB",
"C 	c #686BB0",
"D 	c #5D619E",
"E 	c #40416E",
"F 	c #23203E",
"G 	c #3A2341",
"H 	c #542743",
"I 	c #6A3349",
"J 	c #7B4153",
"K 	c #844858",
"L 	c #7B4152",
"M 	c #834857",
"N 	c #6A6EB2",
"O 	c #4A4A70",
"P 	c #7070A2",
"Q 	c #8081B8",
"R 	c #7071A3",
"S 	c #2C2241",
"T 	c #3A213F",
"U 	c #603846",
"V 	c #87504D",
"W 	c #9D5E55",
"X 	c #A9665E",
"Y 	c #AE6A62",
"Z 	c #A4605B",
"` 	c #924B50",
" .	c #5B5975",
"..	c #8B89AB",
"+.	c #A09DC3",
"@.	c #A09DC2",
"#.	c #8B89AC",
"$.	c #5B5875",
"%.	c #532340",
"&.	c #874F4D",
"*.	c #B7775C",
"=.	c #CD8864",
"-.	c #D08A67",
";.	c #D28B68",
">.	c #D18B68",
",.	c #C87F62",
"'.	c #B66556",
").	c #626078",
"!.	c #9894B0",
"~.	c #AEAAC8",
"{.	c #9895B1",
"].	c #3D2141",
"^.	c #5E2440",
"/.	c #975A50",
"(.	c #CC8763",
"_.	c #E29A6B",
":.	c #D88C65",
"<.	c #C67059",
"[.	c #BAB28C",
"}.	c #5E2540",
"|.	c #975A51",
"1.	c #CC8863",
"2.	c #E39A6B",
"3.	c #3E2241",
"4.	c #5F2540",
"5.	c #90524F",
"6.	c #BE7B60",
"7.	c #C77F62",
"8.	c #B56556",
"9.	c #3F2341",
"0.	c #5F2741",
"a.	c #81434D",
"b.	c #A05E5B",
"c.	c #696DB2",
"d.	c #542640",
"e.	c #6E3449",
"f.	c #834353",
"g.	c #8D4958",
"h.	c #8D4A58",
"i.	c #854353",
"j.	c #76354A",
"k.	c #8B4958",
"l.	c #864857",
"m.	c #834756",
"n.	c #834655",
"o.	c #864756",
"p.	c #8A4857",
"q.	c #2D2241",
"r.	c #3A223F",
"s.	c #532A45",
"t.	c #6C3249",
"u.	c #77364C",
"v.	c #78364C",
"w.	c #74334A",
"x.	c #6E2E46",
"y.	c #6F2E46",
"z.	c #6F354B",
"A.	c #5F334A",
"B.	c #53314A",
"C.	c #24203E",
"D.	c #3B2442",
"E.	c #552743",
"F.	c #5F2943",
"G.	c #602942",
"H.	c #5F2942",
"I.	c #5F2842",
"J.	c #5F2841",
"K.	c #5F2843",
"L.	c #583051",
"M.	c #493B64",
"N.	c #5A5976",
"O.	c #61556D",
"P.	c #603D55",
"Q.	c #402441",
"R.	c #402442",
"S.	c #412442",
"T.	c #402340",
"U.	c #473964",
"V.	c #55558C",
"W.	c #6F70A2",
"X.	c #9895B0",
"Y.	c #87829D",
"Z.	c #3F213F",
"`.	c #252241",
" +	c #282448",
".+	c #2D2854",
"++	c #2F2959",
"@+	c #2F295A",
"#+	c #343160",
"$+	c #3C3B69",
"%+	c #393962",
"&+	c #3E3F6D",
"*+	c #7F80B7",
"=+	c #9F9DC2",
"-+	c #9995B1",
";+	c #636078",
">+	c #373762",
",+	c #242240",
"'+	c #2B2754",
")+	c #37306D",
"!+	c #3B3378",
"~+	c #3C3479",
"{+	c #555795",
"]+	c #51548C",
"^+	c #393B65",
"/+	c #3D3F6D",
"(+	c #AFABC9",
"_+	c #50538B",
":+	c #5D609E",
"<+	c #24213F",
"[+	c #252240",
"}+	c #3D3479",
"|+	c #433886",
"1+	c #433987",
"2+	c #504C94",
"3+	c #6163A8",
"4+	c #393968",
"5+	c #555794",
"6+	c #7B7BB1",
"7+	c #9E9BC0",
"8+	c #A9A5C5",
"9+	c #A09CBD",
"0+	c #8783A3",
"a+	c #585571",
"b+	c #312D5E",
"c+	c #464282",
"d+	c #726FA3",
"e+	c #9B98BC",
"f+	c #A09BBD",
"g+	c #827DA8",
"h+	c #5F5A89",
"i+	c #3F3B62",
"j+	c #2C2854",
"k+	c #232240",
"l+	c #232241",
"m+	c #464384",
"n+	c #51558C",
"o+	c #393A64",
"p+	c #2B2659",
"q+	c #3C3378",
"r+	c #655E96",
"s+	c #8A85AE",
"t+	c #2C2753",
"u+	c #372F6C",
"v+	c #3A3A63",
"w+	c #2E2859",
"x+	c #50488C",
"y+	c #635D96",
"z+	c #4F478B",
"A+	c #3B3278",
"B+	c #2D2759",
"C+	c #3D3478",
"D+	c #433986",
"E+	c #2E2341",
"F+	c #3B2440",
"G+	c #412542",
"H+	c #472944",
"I+	c #513048",
"J+	c #513047",
"K+	c #402954",
"L+	c #3D306E",
"M+	c #552741",
"N+	c #602943",
"O+	c #6B3348",
"P+	c #7B4151",
"Q+	c #7C4151",
"R+	c #6B3349",
"S+	c #56294A",
"T+	c #3F2954",
"U+	c #6C2B44",
"V+	c #6D2B44",
"W+	c #6B2A44",
"X+	c #79384C",
"Y+	c #632943",
"Z+	c #4E2642",
"`+	c #6C2A44",
" @	c #7A384C",
".@	c #692A44",
"+@	c #622942",
"@@	c #6A2B44",
"#@	c #2D2341",
"$@	c #4F2642",
"%@	c #787566",
"&@	c #CFC69A",
"                                                            . .     . . . . . . . . . . . . . . . . . . . . . . . . . . . . . . ",
"                                                          . . .       . . . . . . . . . . . . . . . . . . . . . . . . . . . . . ",
"                                                        . . . .         . . . . . . . . . . . . . . . . . . . . . . . . . . . . ",
"                                                      . . . . .           . . . . . . . . . . . . . . . . . . . . . . . . . . . ",
"                                                    . . . . . .             . . . . . . . . . . . . . . . . . . . . . . . . . . ",
"                                                  . . . . . . .               . . . . . . . . . . . . . . . . . . . . . . . . . ",
"                                                . . . . . . . .                 . . . . . . . . . . . . . . . . . . . . . . . . ",
"                                              . . . . . . . . .                   . . . . . . . . . . . . . . . . . . . . . . . ",
"                                            . . . . . . . . . .                     . . . . . . . . . . . . . . . . . . . . . . ",
"                                          . . . . . . . . . . .                       . . . . . . . . . . . . . . . . . . . . . ",
"                                        . . . . . . . . . . . .                         . . . . . . . . . . . . . . . . . . . . ",
"                                      . . . . . . . . . . . . .                           . . . . . . . . . . . . . . . . . . . ",
"                                    . . . . . . . . . . . . . .                             . . . . . . . . . . . . . . . . . . ",
"                                  . . . . . . . . . . . . . . .                               . . . . . . . . . . . . . . . . . ",
"                                . . . . . . . . . . . . . . . .                                 . . . . . . . . . . . . . . . . ",
"                  + @ # $ $ # % & . . . . . . . . . . . . . . .                           + @ # $ * * = - . . . . . . . . . . . ",
"                  ; > , ' ' ) ! ~ . . . . . . . . . . . . . . .                           ; > , ' ' ) ! ~ . . . . . . . . . . . ",
"              + ; { ] ^ / ( _ : < [ } | | | | | | | | | | | | | # # # # # # # # # # # 1 # 2 3 4 ( 5 6 7 8 ~ - . . . . . . . . . ",
"              @ > ] 9 0 a b ( c d ) e ) ) ) ) ) ) ) ) ) ) ) ) ) , , , , , , , , , , , f , g h ( b i i j 7 ! = . . . . . . . . . ",
"              # , k l m n o p q r s t u v w w x y y x w w w w w w w w x y y x w w v u t s r q z o A A o z ) * . . . . . . . . . ",
"              $ ' / a B C D E q F G H I J K K L I I L M K M M M M K M L I I L K K J I H G F q 6 D N N i 5 ' * . . . . . . . . . ",
"              $ , O P Q Q R O S T U V W X Y Y Z ` ` Z Y Y Y Y Y Y Y Y Z ` ` Z Y Y X W V U T S O R Q Q P O , $ . . . . . . . . . ",
"              $ )  ...+.@.#.$.t %.&.*.=.-.;.>.,.'.'.,.>.;.>.>.>.>.;.>.,.'.'.,.>.;.-.=.*.&.%.t $.#.@.@...$., $   . . . . . . . . ",
"              * ) ).!.~.~.{.).].^./.(._._._._.:.<.<.:._._._._._._._._.:.<.<.:._._._._.(./.^.].).{.~.~.!.)., [.    . . . . . . . ",
"            . * ) ).!.~.~.{.).].}.|.1._.2._._.:.<.<.:._._._._._._._._.:.<.<.:._._.2._.1.|.}.].).{.~.~.!.)., [.      . . . . . . ",
"          . . * ) $...@.@.#.$.3.4.5.6.>.;.>.>.7.8.8.7.>.;.>.>.>.>.;.>.7.8.8.7.>.>.;.>.6.5.4.3.$.#.@.@...$., $         . . . . . ",
"        . . . * ) O P Q Q R O 9.0.a.b.Y Y Y Y Z ` ` Z Y Y Y Y Y Y Y Y Z ` ` Z Y Y Y Y b.a.0.9.O R Q Q P O , $           . . . . ",
"      . . . . * ) z i c.c.i z G d.e.f.g.h.h.g.i.j.j.i.k.l.m.n.n.n.o.p.i.j.j.i.g.h.h.g.f.e.d.G z i c.c.i z , $             . . . ",
"    . . . . . * ) z o A A o z q.r.s.t.u.v.u.u.w.x.y.w.z.A.w B.B.w A.z.w.y.x.w.u.u.v.u.t.s.r.q.z o A A o z , $               . . ",
"  . . . . . . * ) z i c.c.i z q C.D.E.F.G.H.H.I.J.0.K.L.M.O N.).).O.P.K.0.J.I.H.H.G.F.E.D.C.q z i c.c.i z , $                 . ",
". . . . . . . * ) z i c.c.i z q r q.G Q.Q.Q.Q.R.S.T.R.U.V.W.#.{.X.Y.O.R.Z.S.R.Q.Q.Q.Q.G q.r q z i c.c.i z , $                   ",
". . . . . . . * ) 6 i N N D 6 `.F `.`. +.+++@+#+$+%+_ &+i *+=+~.~.-+;+_ >+$+#+@+++.+ +`.`.F `.6 D N N i 6 , $                   ",
"              $ , z i c.c.i z `.C.,+q '+)+!+~+0 {+]+^+/+i Q +.(+~.{.).^+_+{+0 ~+!+)+'+q ,+C.`.z i c.c.i z ) * . . . . . . . . . ",
"              $ , ( b :+:+b ( `.<+[+`.@+}+|+1+2+3+i E 4+5+6+7+8+9+0+a+E o 3+2+1+|+}+@+`.[+<+`.( b :+:+b ( ) [ . . . . . . . . . ",
".             # , 4 ( 6 6 ( 4 `.[+[+`.@+}+|+1+2+3+i E b+c+d+e+f+g+h+i+E i 3+2+1+|+}+@+`.[+[+`.4 ( 6 6 ( 4 ) [ . . . . . . . .   ",
". .           # ,  +j+@+@+.+ +`.q k+l+'+)+!+~+m+{+n+o+p+q+r+s+s+r+q+p+o+n+{+m+~+!+)+'+l+k+q `. +.+@+@+j+ +) [ . . . . . . .     ",
". . .         # , t+u+q+q+u+t+`.[+`.`. +.+++@+#+$+v+_ w+q+x+y+y+z+A+B+_ v+$+#+@+++.+ +`.`.[+`.t+u+q+q+u+t+) [ . . . . . .       ",
". . . .       # , @+C+D+D+}+@+E+F+G+G+G+G+S.G+H+I+J+H+K+L+~+~+~+~+L+K+H+J+I+H+G+S.G+G+G+G+F+E+@+}+D+D+C+@+) [ . . . . .         ",
". . . . .     # , @+}+1+1+~+@+D.M+N+N+F.H.I.H.O+P+Q+R+S+T+w+p+p+w+T+S+R+Q+P+O+H.I.H.F.N+N+M+D.@+~+1+1+}+@+) [ . . . .           ",
". . . . . .   # , @+C+D+D+~+@+G+G.U+V+U+U+W+U+X+g.g.X+Y+Z+G+R.R.G+Z+Y+X+g.g.X+U+W+U+U+V+U+G.G+@+~+D+D+C+@+) [ . . .             ",
". . . . . . . # , @+C+D+D+~+@+G+G.U+V+U+U+`+U+ @h.h. @.@+@H.H.H.H.+@.@ @h.h. @U+`+U+U+V+U+G.G+@+~+D+D+C+@+) [ . .               ",
". . . . . . . [ , @+}+1+1+~+@+D.M+Y+@@U+V+`+U+ @h.h. @U+`+U+U+U+U+`+U+ @h.h. @U+`+V+U+@@Y+M+D.@+~+1+1+}+@+) [ .                 ",
". . . . . . . [ ) @+C+D+D+}+@+#@F+$@Y+U+U+W+U+X+g.g.X+U+`+U+U+U+U+`+U+X+g.g.X+U+W+U+U+Y+$@F+#@@+}+D+D+C+@+) [                   ",
". . . . . . . | %@j+)+}+}+)+j+q [+D.H F.N+K.F.I J J I F.K.F.F.F.F.K.F.I J J I F.K.N+F.H D.[+q j+)+}+}+)+j+%@#                   ",
". . . . . . . [ )  +j+@+@+.+ +q q #@D.G+G+S.G+H+I+I+H+G+S.G+G+G+G+S.G+H+I+I+H+G+S.G+G+D.#@q q  +.+@+@+j+ +, #                   ",
". . . . . . . ~ ! ) %@) , , , , , , , , , , , , , , , , , , , , ) ) ) ) ) ) ) ) ) ) ) ) ) ) ) ) ) ) ) %@, > ;                   ",
". . . . . . . - ~ [ | [ [ # # # # # # # # # # # # # # # # # # # | | | | | | | | | | | [ [ [ [ [ [ [ [ # # ; &@                  ",
". . . . . . . . . . . . . .                                     . . . . . . . . . . . . . . . . . .                             ",
". . . . . . . . . . . . . . .                                   . . . . . . . . . . . . . . . . .                               ",
". . . . . . . . . . . . . . . .                                 . . . . . . . . . . . . . . . .                                 ",
". . . . . . . . . . . . . . . . .                               . . . . . . . . . . . . . . .                                   ",
". . . . . . . . . . . . . . . . . .                             . . . . . . . . . . . . . .                                     ",
". . . . . . . . . . . . . . . . . . .                           . . . . . . . . . . . . .                                       ",
". . . . . . . . . . . . . . . . . . . .                         . . . . . . . . . . . .                                         ",
". . . . . . . . . . . . . . . . . . . . .                       . . . . . . . . . . .                                           ",
". . . . . . . . . . . . . . . . . . . . . .                     . . . . . . . . . .                                             ",
". . . . . . . . . . . . . . . . . . . . . . .                   . . . . . . . . .                                               ",
". . . . . . . . . . . . . . . . . . . . . . . .                 . . . . . . . .                                                 ",
". . . . . . . . . . . . . . . . . . . . . . . . .               . . . . . . .                                                   ",
". . . . . . . . . . . . . . . . . . . . . . . . . .             . . . . . .                                                     ",
". . . . . . . . . . . . . . . . . . . . . . . . . . .           . . . . .                                                       ",
". . . . . . . . . . . . . . . . . . . . . . . . . . . .         . . . .                                                         ",
". . . . . . . . . . . . . . . . . . . . . . . . . . . . .       . . .                                                           ",
". . . . . . . . . . . . . . . . . . . . . . . . . . . . . .     . .                                                             "};
