/* XPM */
static char *xpm_data[] = {
"64 64 9 1",
"B c #211F30"
"C c #CC3048"
"D c #CE8B16"
"E c #F7EC8A"
"F c #E1CA33"
"G c #FFFFFF"
"H c #6CD9F1"
"I c #BA570B"
"  c None",
"AAAAAAAAAAAAAAAAAAAAAAAAAAAAAAAAAAAAAAAAAAAAAAAAAAAAAAAAAAAAAAAA",
"AAAAAAAAAAAAAAAAAAAAAAAAAAAAAAAAAAAAAAAAAAAAAAAAAAAAAAAAAAAAAAAA",
"AAAAAAAAAAAAAAAAAAAAAAAAAAAAAAAAAAAAAAAAAAAAAAAAAAAAAAAAAAAAAAAA",
"AAAAAAAAAAAAAAAAAAAAAAAAAAAAAAAAAAAAAAAAAAAAAAAAAAAAAAAAAAAAAAAA",
"AAAAAAAAAAAAAAAAAAAAAAAABBBBAAAAAAAAAAAAAAAAAAAAAAAAAAAAAAAAAAAA",
"AAAAAAAAAAAAAAAAAAAAAAAABBBBAAAAAAAAAAAAAAAAAAAAAAAAAAAAAAAAAAAA",
"AAAAAAAAAAAAAAAAAAAAAAAABBCCBBAAAAAAAAAAAAAAAAAAAAAAAAAAAAAAAAAA",
"AAAAAAAAAAAAAAAAAAAAAAAABBCCBBAAAAAAAAAAAAAAAAAAAAAAAAAAAAAAAAAA",
"AAAAAAAAAAAAAAAAAAAAAAAABBCCBBAAAAAAAAAAAAAAAAAAAAAAAAAAAAAAAAAA",
"AAAAAAAAAAAAAAAAAAAAAAAABBCCBBAAAAAAAAAAAAAAAAAAAAAAAAAAAAAAAAAA",
"AAAAAAAAAAAAAAAAAAAAAAAABBDDBBAAAAAAAAAAAAAAAAAAAAAAAAAAAAAAAAAA",
"AAAAAAAAAAAAAAAAAAAAAAAABBDDBBAAAAAAAAAAAAAAAAAAAAAAAAAAAAAAAAAA",
"AAAAAAAAAAAAAAAAAAAAAAAABBDDBBBBBBBBBBBBBBAAAAAAAAAAAAAAAAAAAAAA",
"AAAAAAAAAAAAAAAAAAAAAAAABBDDBBBBBBBBBBBBBBAAAAAAAAAAAAAAAAAAAAAA",
"AAAAAAAAAAAAAAAAAAAABBBBEEEEFFFFFFFFFFEEEEBBBBAAAAAAAAAAAAAAAAAA",
"AAAAAAAAAAAAAAAAAAAABBBBEEEEFFFFFFFFFFEEEEBBBBAAAAAAAAAAAAAAAAAA",
"AAAAAAAAAAAAAAAAAABBEEEEFFFFFFFFFFFFFFFFFFEEEEBBAAAAAAAAAAAAAAAA",
"AAAAAAAAAAAAAAAAAABBEEEEFFFFFFFFFFFFFFFFFFEEEEBBAAAAAAAAAAAAAAAA",
"AAAAAAAAAAAAAAAABBEEFFFFFFFFFFFFFFFFFFFFFFFFFFEEBBAAAAAAAAAAAAAA",
"AAAAAAAAAAAAAAAABBEEFFFFFFFFFFFFFFFFFFFFFFFFFFEEBBAAAAAAAAAAAAAA",
"AAAAAAAAAAAAAABBEEFFFFFFFFBBBBBBBBBBBBBBBBBBBBFFEEBBAAAAAAAAAAAA",
"AAAAAAAAAAAAAABBEEFFFFFFFFBBBBBBBBBBBBBBBBBBBBFFEEBBAAAAAAAAAAAA",
"AAAAAAAAAAAAAABBFFFFFFFFBBBBBBBBBBBBBBBBBBBBBBBBFFEEBBAAAAAAAAAA",
"AAAAAAAAAAAAAABBFFFFFFFFBBBBBBBBBBBBBBBBBBBBBBBBFFEEBBAAAAAAAAAA",
"AAAAAAAAAAAABBDDFFFFFFBBBBBBBBBBBBBBBBBBBBBBBBBBBBFFBBAAAAAAAAAA",
"AAAAAAAAAAAABBDDFFFFFFBBBBBBBBBBBBBBBBBBBBBBBBBBBBFFBBAAAAAAAAAA",
"AAAAAAAAAAAABBDDFFFFFFBBBBGGGGBBBBBBBBBBBBBBGGGGBBFFBBAAAAAAAAAA",
"AAAAAAAAAAAABBDDFFFFFFBBBBGGGGBBBBBBBBBBBBBBGGGGBBFFBBAAAAAAAAAA",
"AAAAAAAAAAAABBDDFFFFFFBBBBHHHHBBBBBBBBBBBBBBHHHHBBFFBBAAAAAAAAAA",
"AAAAAAAAAAAABBDDFFFFFFBBBBHHHHBBBBBBBBBBBBBBHHHHBBFFBBAAAAAAAAAA",
"AAAAAAAAAAAABBDDFFFFFFBBBBGGGGBBBBBBBBBBBBBBGGGGBBFFBBAAAAAAAAAA",
"AAAAAAAAAAAABBDDFFFFFFBBBBGGGGBBBBBBBBBBBBBBGGGGBBFFBBAAAAAAAAAA",
"AAAAAAAAAAAABBDDFFFFFFBBBBBBBBBBBBBBBBBBBBBBBBBBBBFFBBAAAAAAAAAA",
"AAAAAAAAAAAABBDDFFFFFFBBBBBBBBBBBBBBBBBBBBBBBBBBBBFFBBAAAAAAAAAA",
"AAAAAAAAAAAABBDDFFFFFFFFBBBBBBBBBBBBBBBBBBBBBBBBFFFFBBAAAAAAAAAA",
"AAAAAAAAAAAABBDDFFFFFFFFBBBBBBBBBBBBBBBBBBBBBBBBFFFFBBAAAAAAAAAA",
"AAAAAAAAAAAABBDDFFFFFFFFFFBBBBBBBBBBBBBBBBBBBBFFFFBBBBAAAAAAAAAA",
"AAAAAAAAAAAABBDDFFFFFFFFFFBBBBBBBBBBBBBBBBBBBBFFFFBBBBAAAAAAAAAA",
"AAAAAAAAAABBDDBBDDFFFFFFFFFFFFFFFFFFFFFFFFFFFFFFBBDDDDBBAAAAAAAA",
"AAAAAAAAAABBDDBBDDFFFFFFFFFFFFFFFFFFFFFFFFFFFFFFBBDDDDBBAAAAAAAA",
"AAAAAAAAAABBDDFFBBDDDDFFFFFFFFFFFFFFFFFFFFFFFFDDBBDDDDBBAAAAAAAA",
"AAAAAAAAAABBDDFFBBDDDDFFFFFFFFFFFFFFFFFFFFFFFFDDBBDDDDBBAAAAAAAA",
"AAAAAAAAAABBDDFFFFBBBBDDDDFFFFFFDDDDIIIIFFDDBBBBBBDDDDBBAAAAAAAA",
"AAAAAAAAAABBDDFFFFBBBBDDDDFFFFFFDDDDIIIIFFDDBBBBBBDDDDBBAAAAAAAA",
"AAAAAAAAAAAABBDDFFFFFFFFFFFFFFDDFFFFFFFFIIFFFFBBDDDDBBAAAAAAAAAA",
"AAAAAAAAAAAABBDDFFFFFFFFFFFFFFDDFFFFFFFFIIFFFFBBDDDDBBAAAAAAAAAA",
"AAAAAAAAAAAAAABBBBBBDDFFFFFFDDFFFFFFFFFFIIFFFFBBBBBBAAAAAAAAAAAA",
"AAAAAAAAAAAAAABBBBBBDDFFFFFFDDFFFFFFFFFFIIFFFFBBBBBBAAAAAAAAAAAA",
"AAAAAAAAAAAAAAAAAABBDDFFFFFFDDFFFFFFFFFFIIFFFFBBAAAAAAAAAAAAAAAA",
"AAAAAAAAAAAAAAAAAABBDDFFFFFFDDFFFFFFFFFFIIFFFFBBAAAAAAAAAAAAAAAA",
"AAAAAAAAAAAAAAAAAABBDDFFFFFFDDFFFFFFFFFFIIFFFFBBAAAAAAAAAAAAAAAA",
"AAAAAAAAAAAAAAAAAABBDDFFFFFFDDFFFFFFFFFFIIFFFFBBAAAAAAAAAAAAAAAA",
"AAAAAAAAAAAAAAAAAABBDDFFFFFFDDFFFFFFFFFFIIFFFFBBAAAAAAAAAAAAAAAA",
"AAAAAAAAAAAAAAAAAABBDDFFFFFFDDFFFFFFFFFFIIFFFFBBAAAAAAAAAAAAAAAA",
"AAAAAAAAAAAAAAAAAAAABBDDFFFFBBBBBBBBBBDDIIFFFFFFBBAAAAAAAAAAAAAA",
"AAAAAAAAAAAAAAAAAAAABBDDFFFFBBBBBBBBBBDDIIFFFFFFBBAAAAAAAAAAAAAA",
"AAAAAAAAAAAAAAAAAAAAAABBDDDDDDBBAAAAAABBBBFFFFFFBBAAAAAAAAAAAAAA",
"AAAAAAAAAAAAAAAAAAAAAABBDDDDDDBBAAAAAABBBBFFFFFFBBAAAAAAAAAAAAAA",
"AAAAAAAAAAAAAAAAAAAAAAAABBBBBBAAAAAAAABBDDFFFFFFBBAAAAAAAAAAAAAA",
"AAAAAAAAAAAAAAAAAAAAAAAABBBBBBAAAAAAAABBDDFFFFFFBBAAAAAAAAAAAAAA",
"AAAAAAAAAAAAAAAAAAAAAAAAAAAAAAAAAAAAAAAABBDDFFFFBBAAAAAAAAAAAAAA",
"AAAAAAAAAAAAAAAAAAAAAAAAAAAAAAAAAAAAAAAABBDDFFFFBBAAAAAAAAAAAAAA",
"AAAAAAAAAAAAAAAAAAAAAAAAAAAAAAAAAAAAAAAAAABBBBBBAAAAAAAAAAAAAAAA",
"AAAAAAAAAAAAAAAAAAAAAAAAAAAAAAAAAAAAAAAAAABBBBBBAAAAAAAAAAAAAAAA",
};