/* XPM */
static char * wall22_xpm[] = {
"64 64 329 2",
"  	c #611828",
". 	c #7A2032",
"+ 	c #832437",
"@ 	c #822437",
"# 	c #321427",
"$ 	c #521627",
"% 	c #731D2E",
"& 	c #7F2335",
"* 	c #6B1A2B",
"= 	c #411527",
"- 	c #5D5045",
"; 	c #772134",
"> 	c #3E172A",
", 	c #671E31",
"' 	c #7F2336",
") 	c #521A2D",
"! 	c #40202D",
"~ 	c #782235",
"{ 	c #3F172B",
"] 	c #681E31",
"^ 	c #802437",
"/ 	c #521A2E",
"( 	c #3A172A",
"_ 	c #792235",
": 	c #681F32",
"< 	c #812437",
"[ 	c #531A2E",
"} 	c #41212E",
"| 	c #6B1C2E",
"1 	c #7E2234",
"2 	c #381529",
"3 	c #5C1A2B",
"4 	c #802336",
"5 	c #741E30",
"6 	c #49172A",
"7 	c #605146",
"8 	c #4B1121",
"9 	c #6E1C2D",
"0 	c #4A1121",
"a 	c #271225",
"b 	c #3D1022",
"c 	c #631728",
"d 	c #7C2134",
"e 	c #761F31",
"f 	c #571323",
"g 	c #311124",
"h 	c #C3BC91",
"i 	c #D0CCBB",
"j 	c #4B1222",
"k 	c #191327",
"l 	c #1E1226",
"m 	c #3F1223",
"n 	c #611626",
"o 	c #7B2134",
"p 	c #321225",
"q 	c #959171",
"r 	c #D9D4A3",
"s 	c #D2CFBD",
"t 	c #D5CC9E",
"u 	c #DBD7C7",
"v 	c #401427",
"w 	c #531B2E",
"x 	c #541B2E",
"y 	c #261124",
"z 	c #0C1327",
"A 	c #091327",
"B 	c #1D1225",
"C 	c #371224",
"D 	c #4E192C",
"E 	c #481729",
"F 	c #2E1123",
"G 	c #291428",
"H 	c #37172A",
"I 	c #5A4942",
"J 	c #B2AFB0",
"K 	c #691F32",
"L 	c #631C2F",
"M 	c #471223",
"N 	c #251124",
"O 	c #141226",
"P 	c #571B2E",
"Q 	c #611D30",
"R 	c #6E2033",
"S 	c #0A1327",
"T 	c #6C1A2B",
"U 	c #4C1324",
"V 	c #291124",
"W 	c #3F1021",
"X 	c #641929",
"Y 	c #331022",
"Z 	c #581525",
"` 	c #751E30",
" .	c #812336",
"..	c #9F9D9F",
"+.	c #481223",
"@.	c #2C1326",
"#.	c #726A56",
"$.	c #3C162A",
"%.	c #321428",
"&.	c #842538",
"*.	c #5B1A2C",
"=.	c #371529",
"-.	c #661727",
";.	c #421020",
">.	c #2A1225",
",.	c #631625",
"'.	c #550F1D",
").	c #401020",
"!.	c #281225",
"~.	c #90876B",
"{.	c #681828",
"].	c #651626",
"^.	c #410F20",
"/.	c #2B1225",
"(.	c #1E1326",
"_.	c #C0B88F",
":.	c #CDCCCD",
"<.	c #1A1326",
"[.	c #410F1F",
"}.	c #400F20",
"|.	c #3E0E1F",
"1.	c #3E0F20",
"2.	c #031327",
"3.	c #071227",
"4.	c #DFDFDF",
"5.	c #1F1226",
"6.	c #2D1326",
"7.	c #3F172A",
"8.	c #43182B",
"9.	c #42182B",
"0.	c #41182C",
"a.	c #331123",
"b.	c #1D1226",
"c.	c #271124",
"d.	c #501425",
"e.	c #761D2F",
"f.	c #8F273C",
"g.	c #95293F",
"h.	c #94293E",
"i.	c #892538",
"j.	c #411224",
"k.	c #201225",
"l.	c #211225",
"m.	c #4B1223",
"n.	c #291225",
"o.	c #561323",
"p.	c #4B1324",
"q.	c #90283D",
"r.	c #93293E",
"s.	c #8B263A",
"t.	c #681829",
"u.	c #3B1325",
"v.	c #381225",
"w.	c #6D1C2D",
"x.	c #50101F",
"y.	c #731F32",
"z.	c #3D172A",
"A.	c #6F2033",
"B.	c #92293D",
"C.	c #581B2F",
"D.	c #7D2234",
"E.	c #741E2F",
"F.	c #842438",
"G.	c #41182B",
"H.	c #772337",
"I.	c #952A3F",
"J.	c #92293E",
"K.	c #5F1D31",
"L.	c #661C2F",
"M.	c #882538",
"N.	c #91283D",
"O.	c #812235",
"P.	c #50192C",
"Q.	c #48172A",
"R.	c #6F1B2C",
"S.	c #431021",
"T.	c #6E1A2A",
"U.	c #852337",
"V.	c #5F1423",
"W.	c #341123",
"X.	c #5B1221",
"Y.	c #771F31",
"Z.	c #812436",
"`.	c #58101E",
" +	c #4B0E1E",
".+	c #560F1E",
"++	c #6A1828",
"@+	c #822235",
"#+	c #601423",
"$+	c #520E1D",
"%+	c #510E1D",
"&+	c #5C1221",
"*+	c #792032",
"=+	c #691828",
"-+	c #480E1D",
";+	c #5B1120",
">+	c #671827",
",+	c #6C1929",
"'+	c #711B2C",
")+	c #661626",
"!+	c #4F0D1C",
"~+	c #3A1022",
"{+	c #231226",
"]+	c #4F0E1C",
"^+	c #441020",
"/+	c #321022",
"(+	c #3F0E1F",
"_+	c #0A1226",
":+	c #3E0F1F",
"<+	c #3D0E1F",
"[+	c #3F0F1F",
"}+	c #400F1F",
"|+	c #3A0F21",
"1+	c #181226",
"2+	c #041327",
"3+	c #3E1021",
"4+	c #1C1326",
"5+	c #3A1629",
"6+	c #1A1327",
"7+	c #231225",
"8+	c #341427",
"9+	c #3B162A",
"0+	c #3A162A",
"a+	c #351528",
"b+	c #281326",
"c+	c #201428",
"d+	c #88263B",
"e+	c #89273B",
"f+	c #772032",
"g+	c #4C1122",
"h+	c #141327",
"i+	c #812438",
"j+	c #5A1525",
"k+	c #151327",
"l+	c #1C1327",
"m+	c #691A2C",
"n+	c #87263A",
"o+	c #3C1021",
"p+	c #081327",
"q+	c #191226",
"r+	c #5B192B",
"s+	c #261225",
"t+	c #131327",
"u+	c #3E172B",
"v+	c #391629",
"w+	c #221427",
"x+	c #311022",
"y+	c #181327",
"z+	c #5E1728",
"A+	c #8E273B",
"B+	c #791F31",
"C+	c #4E1324",
"D+	c #211226",
"E+	c #6D1B2D",
"F+	c #1D1327",
"G+	c #5A182A",
"H+	c #802134",
"I+	c #461628",
"J+	c #591829",
"K+	c #361528",
"L+	c #721B2C",
"M+	c #221428",
"N+	c #762236",
"O+	c #5C1D30",
"P+	c #742236",
"Q+	c #46182C",
"R+	c #92283D",
"S+	c #942A3F",
"T+	c #751D2F",
"U+	c #59182A",
"V+	c #94293F",
"W+	c #711B2D",
"X+	c #400E1F",
"Y+	c #7E2133",
"Z+	c #7F2134",
"`+	c #7A1F31",
" @	c #591120",
".@	c #4D0E1D",
"+@	c #530D1B",
"@@	c #500E1D",
"#@	c #540E1D",
"$@	c #4C0E1E",
"%@	c #3D1021",
"&@	c #460F1F",
"*@	c #4C0E1D",
"=@	c #161327",
"-@	c #201326",
";@	c #3B1022",
">@	c #500D1C",
",@	c #510D1B",
"'@	c #301124",
")@	c #1B1327",
"!@	c #1F1326",
"~@	c #440F1F",
"{@	c #0D1327",
"]@	c #1F1225",
"^@	c #321123",
"/@	c #331023",
"(@	c #351123",
"_@	c #361123",
":@	c #2F1123",
"<@	c #151226",
"[@	c #281124",
"}@	c #4F192C",
"|@	c #391225",
"1@	c #0F1327",
"2@	c #121327",
"3@	c #421527",
"4@	c #101327",
"5@	c #551323",
"6@	c #1B1326",
"7@	c #611E30",
"8@	c #5A1C2F",
"9@	c #661E31",
"0@	c #3C172A",
"a@	c #40172B",
"b@	c #271427",
"c@	c #231428",
"d@	c #2A1327",
"e@	c #271428",
"f@	c #0B1327",
"g@	c #071327",
"h@	c #241124",
"i@	c #4A1324",
"j@	c #772237",
"k@	c #762237",
"l@	c #2B1124",
"m@	c #531829",
"n@	c #671F32",
"  . + @ @ @ @ @ @ @ @ @ @ @ @ @ @ + .   # $ % @ @ @ @ @ @ @ @ @ @ @ @ @ @ @ + & * = -   . + @ @ @ @ @ @ @ @ @ @ @ @ @ @ + .   # ",
"; + @ @ @ @ @ @ @ @ @ @ @ @ @ @ @ @ + ; > , @ @ @ @ @ @ @ @ @ @ @ @ @ @ @ @ @ @ ' ) ! ; + @ @ @ @ @ @ @ @ @ @ @ @ @ @ @ @ + ; > ",
"~ + @ @ @ @ @ @ @ @ @ @ @ @ @ @ @ @ + ~ { ] + @ @ @ @ @ @ @ @ @ @ @ @ @ @ @ @ @ ^ / ( ~ + @ @ @ @ @ @ @ @ @ @ @ @ @ @ @ @ + ~ { ",
"_ + @ @ @ @ @ @ @ @ @ @ @ @ @ @ @ @ + _ { : + @ @ @ @ @ @ @ @ @ @ @ @ @ @ @ @ @ < [ } _ + @ @ @ @ @ @ @ @ @ @ @ @ @ @ @ @ + _ { ",
"| 1 + @ @ @ @ @ @ @ @ @ @ @ @ @ @ + 1 | 2 3 . @ @ @ @ @ @ @ @ @ @ @ @ @ @ @ @ 4 5 6 7 | 1 + @ @ @ @ @ @ @ @ @ @ @ @ @ @ + 1 | 2 ",
"8 9 & @ @ @ @ @ @ @ @ @ @ @ @ @ @ & 9 0 a b c d < @ @ @ @ @ @ @ @ @ @ @ @ @ 4 e f g h 8 9 & @ @ @ @ @ @ @ @ @ @ @ @ @ @ & 9 0 a ",
"i j * ' ^ ^ ^ ^ ^ ^ ^ ^ ^ ^ ^ ^ ' * j a k l m n o < ^ ^ ^ ^ ^ ^ ^ ^ ^ ^ ^ < 5 f p q r s j * ' ^ ^ ^ ^ ^ ^ ^ ^ ^ ^ ^ ^ ' * j a k ",
"t u v ) / ) [ w x x x x w [ ) / ) v y z z A B C D [ ) [ w x x x x x w ) ) [ E F G H ( I J v ) / ) [ w x x x x w [ ) / ) v y z z ",
"K K K ] ] : L M N r r O F E [ ) ) w x x x x x w [ ) [ D C B A z z y v ) / P Q R ~ ~ ~ ~ ~ R Q P [ E F O S S O F E [ ) ) w x x x ",
"+ + + + + + & T U V r t W X . + + + + + + + + + + + + + + . X W t Y Z `  .+ + + + + + + + + + + + + 1 9 j ....j 9 1 + + + + + + ",
"@ @ @ @ @ @ @ 4 T +.@.#.  . + @ @ @ @ @ @ @ @ @ @ @ @ @ @ + .   # $ % @ @ @ @ @ @ @ @ @ @ @ @ @ @ @ + & * = = * & + @ @ @ @ @ @ ",
"@ @ @ @ @ @ @ @ & L $.%.; + @ @ @ @ @ @ @ @ @ @ @ @ @ @ @ @ + ; > , @ @ @ @ @ @ @ @ @ @ @ @ @ @ @ @ @ @ ' ) ) ' @ @ @ @ @ @ @ @ ",
"@ @ @ @ @ @ @ @ &.K { $.~ + @ @ @ @ @ @ @ @ @ @ @ @ @ @ @ @ + ~ { ] + @ @ @ @ @ @ @ @ @ @ @ @ @ @ @ @ @ ^ / / ^ @ @ @ @ @ @ @ @ ",
"@ @ @ @ @ @ @ @ . *.=.{ _ + @ @ @ @ @ @ @ @ @ @ @ @ @ @ @ @ + _ { : + @ @ @ @ @ @ @ @ @ @ @ @ @ @ @ @ @ < [ [ < @ @ @ @ @ @ @ @ ",
"@ @ @ @ @ @ < d -.;.>.=.| 1 + @ @ @ @ @ @ @ @ @ @ @ @ @ @ + 1 | 2 3 . @ @ @ @ @ @ @ @ @ @ @ @ @ @ @ @ 4 5 6 6 5 4 @ @ @ @ @ @ @ ",
" . . . . .< d ,.'.).!.~.8 9 & @ @ @ @ @ @ @ @ @ @ @ @ @ @ & 9 0 a b c d < @ @ @ @ @ @ @ @ @ @ @ @ @ 4 e f g g f e 4 @ @ @ @ @ @ ",
"{.{.{.{.{.{.].'.^./.(._.:.j * ' ^ ^ ^ ^ ^ ^ ^ ^ ^ ^ ^ ^ ' * j a k l m n o < ^ ^ ^ ^ ^ ^ ^ ^ ^ ^ ^ < 5 f p <.<.p f 5 < ^ ^ ^ ^ ^ ",
"[.^.}.|.|.|.|.1.y 2.3.t t 4.v ) / ) [ w x x x x w [ ) / ) v y z z A B C D [ ) [ w x x x x x w ) ) [ E F O S S O F E [ ) ) w x x ",
"k 5.6.7.8.8.8.8.9.0.0.x x x w ) ) [ E F O S S O F E [ ) ) w x x x x x w [ ) [ D C B A z z y v ) / ) [ w x x x x w [ ) / ) v y z ",
"Z % @ + + + + + + + + + + + + @ % Z a.b.c.d.e.f.g.h.h.h.h.h.h.h.h.h.h.h.g.i.* j.k.l.m c . + + + + + + ^ ^ ^ ^ ^ ^ ^ ^ ^ ' * m.n.",
"` @ @ @ @ @ @ @ @ @ @ @ @ @ @ @ @ ` o.6.p.e.q.r.r.r.r.r.r.r.r.r.r.r.r.r.r.r.s.t.u.v.n d @ @ @ @ @ @ @ @ @ @ @ @ @ @ @ @ @ & w.x.",
" .@ @ @ @ @ @ @ @ @ @ @ @ @ @ @ @  .y.z.A.f.r.r.r.r.r.r.r.r.r.r.r.r.r.r.r.r.B.s.C.D o < @ @ @ @ @ @ @ @ @ @ @ @ @ @ @ @ @ + D.E.",
"F.@ @ @ @ @ @ @ @ @ @ @ @ @ @ @ @ F._ G.H.I.r.r.r.r.r.r.r.r.r.r.r.r.r.r.r.r.r.J.K.[ < @ @ @ @ @ @ @ @ @ @ @ @ @ @ @ @ @ @ @ @ + ",
"1 + @ @ @ @ @ @ @ @ @ @ @ @ @ @ + 1 | 2 L.M.r.r.r.r.r.r.r.r.r.r.r.r.r.r.r.h.N.O.P.Q.5 4 + @ @ @ @ @ @ @ @ @ @ @ @ @ @ @ @ @ @ @ ",
"R.& @ @ @ @ @ @ @ @ @ @ @ @ @ @ & R.x.>.S.T.s.B.r.r.r.r.r.r.r.r.r.r.r.r.r.N.U.V.W.W.X.Y.4 @ @ @ @ @ @ @ @ @ @ @ @ @ @ @ @ @ @ Z.",
"`.T 4 Z. . . . . . . . . . .Z.4 T `. +!.}..+++s.J.N.N.N.N.N.N.N.N.N.N.N.J.@+#+$+a.a.%+&+` <  . . . . .@ @ @ @ @ @ @ @ @ @ + *+=+",
"-+;+>+{.{.{.{.{.{.{.{.{.{.{.{.>+;+-+a.(./.[..+,+'+'+'+'+'+'+'+'+'+'+'+'+'+)+!+~+{+{+~+]+#+{.{.{.{.{.{.+ + + + + + + + + + . X ^+",
"/+(+|.|.|.(+}.[.[.[.[.}.(+|.|.|.(+/+_+3.2.y :+|.<+<+|.[+}+[.[.}+}+[+<+<+<+(+|+1+2+2+1+|+(+|.|.|.[+^.[.~ ~ ~ ~ ~ ~ ~ ~ ~ ;   3+4+",
"9.8.8.8.8.5+!.4+k k 4+!.5+8.8.8.8.9.0.0.0.9.8.8.8.8.7.6.5.k k 6+7+8+9.8.8.8.9.0.0.0.0.9.8.8.8.9.8+7+6+9+0+( ( 0+9+z.{ { > a+b+c+",
"d+d+d+d+e+f+g+a h+h+a g+f+e+d+d+d+d+d+d+d+d+d+d+d+e+i+j+a.k+k+l+W m+n+d+d+d+d+d+d+d+d+d+d+d+d+n+m+W 4+o+1+p+p+q+o+r+: ] ] : K K ",
"^ ^ ^ ^ ^ < o n m l k r a.Z % @ + + + + + + + + + + + + @ % Z a.b.c.d.e.f.g.h.h.h.h.h.h.h.h.h.h.h.g.i.* j.k.l.m c . + + + + + + ",
"@ @ @ @ @ @ < d c b a @.o.` @ @ @ @ @ @ @ @ @ @ @ @ @ @ @ @ ` o.6.p.e.q.r.r.r.r.r.r.r.r.r.r.r.r.r.r.r.s.t.u.v.n d @ @ @ @ @ @ @ ",
"@ @ @ @ @ @ @ @ . 3 2 $.y. .@ @ @ @ @ @ @ @ @ @ @ @ @ @ @ @  .y.z.A.f.r.r.r.r.r.r.r.r.r.r.r.r.r.r.r.r.B.s.C.D o < @ @ @ @ @ @ @ ",
"@ @ @ @ @ @ @ @ + : { { _ F.@ @ @ @ @ @ @ @ @ @ @ @ @ @ @ @ F._ G.H.I.r.r.r.r.r.r.r.r.r.r.r.r.r.r.r.r.r.J.K.[ < @ @ @ @ @ @ @ @ ",
"@ @ @ @ @ @ @ @ + ] { =.| 1 + @ @ @ @ @ @ @ @ @ @ @ @ @ @ + 1 | 2 L.M.r.r.r.r.r.r.r.r.r.r.r.r.r.r.r.h.N.O.P.Q.5 4 + @ @ @ @ @ @ ",
"@ @ @ @ @ @ @ @ @ , > >.x.R.& @ @ @ @ @ @ @ @ @ @ @ @ @ @ & R.x.>.S.T.s.B.r.r.r.r.r.r.r.r.r.r.r.r.r.N.U.V.W.W.X.Y.4 @ @ @ @ @ @ ",
"~ ~ ~ ~ ~ _ | 0 s+t+t+!. +`.T 4 Z. . . . . . . . . . .Z.4 T `. +!.}..+++s.J.N.N.N.N.N.N.N.N.N.N.N.J.@+#+$+a.a.%+&+` <  . . . . .",
"0+9+z.u+{ { v+@.w+c+c+(.a.-+;+>+{.{.{.{.{.{.{.{.{.{.{.{.>+;+-+a.(./.[..+,+'+'+'+'+'+'+'+'+'+'+'+'+'+)+!+~+{+{+~+]+#+{.{.{.{.{.{.",
"r x+$ , ] ] : K K K K 3._+/+(+|.|.|.(+}.[.[.[.[.}.(+|.|.|.(+/+_+3.2.y :+|.<+<+|.[+}+[.[.}+}+[+<+<+<+(+|+1+2+2+1+|+(+|.|.|.[+^.[.",
"k k 5.6.7.8.8.8.8.9.0.0.0.9.8.8.8.8.5+!.4+k k 4+!.5+8.8.8.8.9.0.0.0.9.8.8.8.8.7.6.5.k k 6+7+8+9.8.8.8.9.0.0.0.0.9.8.8.8.9.8+7+6+",
"k+k+a.j+i+e+d+d+d+d+d+d+d+d+d+d+d+e+f+g+a h+h+a g+f+e+d+d+d+d+d+d+d+d+d+d+d+e+i+j+a.k+k+l+W m+n+d+d+d+d+d+d+d+d+d+d+d+d+n+m+W 4+",
"y+Y z+@+N.h.h.h.h.h.h.h.h.h.h.h.h.h.A+B+C+c.c.C+B+A+h.h.h.h.h.h.h.h.h.h.h.h.h.N.@+z+/+D+W E+i.h.h.h.h.h.h.h.h.h.h.h.h.h.h.i.E+^+",
"F+G+H+r.r.r.r.r.r.r.r.r.r.r.r.r.r.r.h.f.e.I+I+e.f.h.r.r.r.r.r.r.r.r.r.r.r.r.r.r.r.H+J+K+m+i.h.r.r.r.r.r.r.r.r.r.r.r.r.r.r.h.M.L+",
"M+N+r.r.r.r.r.r.r.r.r.r.r.r.r.r.r.r.r.r.q.O+O+q.r.r.r.r.r.r.r.r.r.r.r.r.r.r.r.r.r.r.P+Q+n+h.r.r.r.r.r.r.r.r.r.r.r.r.r.r.r.r.J.R+",
"M+N+r.r.r.r.r.r.r.r.r.r.r.r.r.r.r.r.r.r.q.O+O+q.r.r.r.r.r.r.r.r.r.r.r.r.r.r.r.r.r.r.P+Q+n+h.r.r.r.r.r.r.r.r.r.r.r.r.r.r.r.r.J.R+",
"F+G+H+r.h.h.h.h.h.h.h.h.h.h.h.h.h.h.S+f.T+I+I+T+f.S+h.h.h.h.h.h.h.h.h.h.h.h.h.h.r.H+U+K+m+M.V+h.h.h.h.h.h.h.h.h.h.h.h.h.h.V+M.W+",
"k X+)+Y+H+Z+Z+Z+Z+Z+Z+Z+Z+Z+Z+Z+Z+Z+H+`+ @/+/+ @`+H+Z+Z+Z+Z+Z+Z+Z+Z+Z+Z+Z+Z+Z+H+Y+)+}+!..@'+H+Z+Z+Z+Z+Z+Z+Z+Z+Z+Z+Z+Z+Z+Z+H+'++@",
"k 3+@@'.'.'.'.'.'.'.'.'.'.'.'.'.'.'.'.#@$@g g $@#@'.'.'.'.'.'.'.'.'.'.'.'.'.'.'.'.@@%@a &@$+'.'.'.'.'.'.'.'.'.'.'.'.'.'.'.'.$+*@",
"=@-@;@>@,@,@,@,@,@,@,@,@,@,@,@,@,@,@,@*@'@)@)@'@*@,@,@,@,@,@,@,@,@,@,@,@,@,@,@,@>@;@!@k s+~@,@,@,@,@,@,@,@,@,@,@,@,@,@,@,@,@~@n.",
"{@A ]@^@/@a./@a.W.(@_@_@_@(@W.a.a.a./@:@<@S S <@:@/@a.a.a.W.(@_@_@_@(@W.a./@a./@^@]@A z z [@/@a.a./@W.(@(@_@_@(@(@W./@a.a./@[@z ",
"x x x w w w x }@|@k.1@2@2@[@3@[ x w w x x x x x x w w x [ 3@[@2@2@1@k.|@}@x w w w x x x x x w w w x 6 '@y+4@4@y+'@6 x w w w x x ",
"^ ^ ^ ^ ^ ^ < o n m l k a j * ' ^ ^ ^ ^ ^ ^ ^ ^ ^ ^ ^ ^ ' * j a k l m n o < ^ ^ ^ ^ ^ ^ ^ ^ ^ ^ ^ < 5 f p <.<.p f 5 < ^ ^ ^ ^ ^ ",
"@ @ @ @ @ @ @ < d c b a 0 9 & @ @ @ @ @ @ @ @ @ @ @ @ @ @ & 9 0 a b c d < @ @ @ @ @ @ @ @ @ @ @ @ @ 4 e f g g f e 4 @ @ @ @ @ @ ",
"@ @ @ @ @ @ @ @ @ . 3 2 | 1 + @ @ @ @ @ @ @ @ @ @ @ @ @ @ + 1 | 2 3 . @ @ @ @ @ @ @ @ @ @ @ @ @ @ @ @ 4 5 6 6 5 4 @ @ @ @ @ @ @ ",
"@ @ @ @ @ @ @ @ @ + : { _ + @ @ @ @ @ @ @ @ @ @ @ @ @ @ @ @ + _ { : + @ @ @ @ @ @ @ @ @ @ @ @ @ @ @ @ @ < [ [ < @ @ @ @ @ @ @ @ ",
"@ @ @ @ @ @ @ @ @ + ] { ~ + @ @ @ @ @ @ @ @ @ @ @ @ @ @ @ @ + ~ { ] + @ @ @ @ @ @ @ @ @ @ @ @ @ @ @ @ @ ^ / / ^ @ @ @ @ @ @ @ @ ",
"@ @ @ @ @ @ @ @ @ @ , > ; + @ @ @ @ @ @ @ @ @ @ @ @ @ @ @ @ + ; > , @ @ @ @ @ @ @ @ @ @ @ @ @ @ @ @ @ @ ' ) ) ' @ @ @ @ @ @ @ @ ",
"~ ~ ~ ~ ~ ~ _ | 0 s+t+t+s+0 | _ ~ ~ ~ ~ ~ ~ ~ ~ ~ ~ ~ _ y.5@^@h+h+6@3+  ; ~ ~ ~ ~ ~ ~ ~ ~ R 7@P ) [ E F O S S O F E [ ) ) w 8@9@",
"( 0+9+z.u+{ { v+@.w+c+c+w+@.v+{ { u+z.9+0+( ( 0+0@{ a@a@> # b@M+c@c@d@K+{ a@a@> 9+0+( H e@y v ) / ) [ w x x x x w [ ) / ) v y z ",
"r r x+$ , ] ] : K K K K K K : ] ] , $ x+{@f@g@h@i@A.j@N+N+j@j@j@j@j@j@k@N+N+j@L.o+1+p+t+a j * ' ^ ^ ^ ^ ^ ^ ^ ^ ^ ^ ^ ^ ' * m.n.",
"r a.Z % @ + + + + + + + + + + + + @ % Z a.b.c.d.e.f.g.h.h.h.h.h.h.h.h.h.h.h.g.i.* j.l@a 0 9 & @ @ @ @ @ @ @ @ @ @ @ @ @ @ & w.x.",
"@.o.` @ @ @ @ @ @ @ @ @ @ @ @ @ @ @ @ ` o.6.p.e.q.r.r.r.r.r.r.r.r.r.r.r.r.r.r.r.s.t.m@2 | 1 + @ @ @ @ @ @ @ @ @ @ @ @ @ @ + D.E.",
"$.y. .@ @ @ @ @ @ @ @ @ @ @ @ @ @ @ @  .y.z.A.f.r.r.r.r.r.r.r.r.r.r.r.r.r.r.r.r.B.s.n@{ _ + @ @ @ @ @ @ @ @ @ @ @ @ @ @ @ @ @ + ",
"{ _ F.@ @ @ @ @ @ @ @ @ @ @ @ @ @ @ @ F._ G.H.I.r.r.r.r.r.r.r.r.r.r.r.r.r.r.r.r.r.J.] { ~ + @ @ @ @ @ @ @ @ @ @ @ @ @ @ @ @ @ @ "};
