/* XPM */
static char * wall2_xpm[] = {
"64 64 315 2",
"  	c #D5CC9E",
". 	c #D9D4A3",
"+ 	c #2F1427",
"@ 	c #39162A",
"# 	c #3A172A",
"$ 	c #9F9D9F",
"% 	c #371629",
"& 	c #341528",
"* 	c #3F1021",
"= 	c #611828",
"- 	c #772134",
"; 	c #782235",
"> 	c #331123",
", 	c #561323",
"' 	c #732032",
") 	c #792235",
"! 	c #6B1C2E",
"~ 	c #4B1121",
"{ 	c #CDCCCD",
"] 	c #641929",
"^ 	c #7A2032",
"/ 	c #832437",
"( 	c #331022",
"_ 	c #581525",
": 	c #751E30",
"< 	c #812336",
"[ 	c #7E2234",
"} 	c #6E1C2D",
"| 	c #4B1222",
"1 	c #822437",
"2 	c #321427",
"3 	c #521627",
"4 	c #731D2E",
"5 	c #7F2335",
"6 	c #6B1A2B",
"7 	c #411527",
"8 	c #3E172A",
"9 	c #671E31",
"0 	c #7F2336",
"a 	c #521A2D",
"b 	c #3F172B",
"c 	c #681E31",
"d 	c #802437",
"e 	c #521A2E",
"f 	c #681F32",
"g 	c #812437",
"h 	c #531A2E",
"i 	c #381529",
"j 	c #5C1A2B",
"k 	c #802336",
"l 	c #741E30",
"m 	c #49172A",
"n 	c #4A1121",
"o 	c #271225",
"p 	c #3D1022",
"q 	c #631728",
"r 	c #7C2134",
"s 	c #761F31",
"t 	c #571323",
"u 	c #311124",
"v 	c #191327",
"w 	c #1E1226",
"x 	c #3F1223",
"y 	c #611626",
"z 	c #7B2134",
"A 	c #321225",
"B 	c #1A1326",
"C 	c #DFDFDF",
"D 	c #401427",
"E 	c #531B2E",
"F 	c #541B2E",
"G 	c #261124",
"H 	c #0C1327",
"I 	c #091327",
"J 	c #1D1225",
"K 	c #371224",
"L 	c #4E192C",
"M 	c #481729",
"N 	c #2E1123",
"O 	c #141226",
"P 	c #0A1327",
"Q 	c #3A1225",
"R 	c #50192C",
"S 	c #4B1223",
"T 	c #291225",
"U 	c #3E1022",
"V 	c #6D1C2D",
"W 	c #50101F",
"X 	c #5D1A2C",
"Y 	c #7D2234",
"Z 	c #741E2F",
"` 	c #6A1F32",
" .	c #691F32",
"..	c #812436",
"+.	c #531627",
"@.	c #792032",
"#.	c #691828",
"$.	c #341022",
"%.	c #291124",
"&.	c #221226",
"*.	c #441020",
"=.	c #321123",
"-.	c #551323",
";.	c #731F32",
">.	c #261225",
",.	c #131327",
"'.	c #141327",
").	c #1B1326",
"!.	c #3E1021",
"~.	c #1C1326",
"{.	c #301427",
"].	c #3C162A",
"^.	c #3A162A",
"/.	c #3B162A",
"(.	c #3D172A",
"_.	c #3E172B",
":.	c #391629",
"<.	c #2C1326",
"[.	c #221427",
"}.	c #201428",
"|.	c #3C172A",
"1.	c #40172B",
"2.	c #271427",
"3.	c #221428",
"4.	c #231428",
"5.	c #2A1327",
"6.	c #361528",
"7.	c #351528",
"8.	c #281326",
"9.	c #631C2F",
"0.	c #471223",
"a.	c #251124",
"b.	c #311022",
"c.	c #0D1327",
"d.	c #0B1327",
"e.	c #071327",
"f.	c #241124",
"g.	c #4A1324",
"h.	c #6F2033",
"i.	c #772237",
"j.	c #762236",
"k.	c #762237",
"l.	c #661C2F",
"m.	c #3C1021",
"n.	c #181226",
"o.	c #081327",
"p.	c #191226",
"q.	c #5B192B",
"r.	c #6C1A2B",
"s.	c #4C1324",
"t.	c #1D1226",
"u.	c #271124",
"v.	c #501425",
"w.	c #761D2F",
"x.	c #8F273C",
"y.	c #95293F",
"z.	c #94293E",
"A.	c #892538",
"B.	c #411224",
"C.	c #201225",
"D.	c #211225",
"E.	c #481223",
"F.	c #2D1326",
"G.	c #4B1324",
"H.	c #90283D",
"I.	c #93293E",
"J.	c #8B263A",
"K.	c #681829",
"L.	c #3B1325",
"M.	c #381225",
"N.	c #92293D",
"O.	c #581B2F",
"P.	c #842538",
"Q.	c #842438",
"R.	c #41182B",
"S.	c #772337",
"T.	c #952A3F",
"U.	c #92293E",
"V.	c #5F1D31",
"W.	c #5B1A2C",
"X.	c #371529",
"Y.	c #882538",
"Z.	c #91283D",
"`.	c #812235",
" +	c #48172A",
".+	c #661727",
"++	c #421020",
"@+	c #2A1225",
"#+	c #6F1B2C",
"$+	c #431021",
"%+	c #6E1A2A",
"&+	c #852337",
"*+	c #5F1423",
"=+	c #341123",
"-+	c #5B1221",
";+	c #771F31",
">+	c #631625",
",+	c #550F1D",
"'+	c #401020",
")+	c #281225",
"!+	c #4B0E1E",
"~+	c #58101E",
"{+	c #400F20",
"]+	c #560F1E",
"^+	c #6A1828",
"/+	c #822235",
"(+	c #601423",
"_+	c #520E1D",
":+	c #510E1D",
"<+	c #5C1221",
"[+	c #681828",
"}+	c #651626",
"|+	c #410F20",
"1+	c #2B1225",
"2+	c #1E1326",
"3+	c #480E1D",
"4+	c #5B1120",
"5+	c #671827",
"6+	c #410F1F",
"7+	c #6C1929",
"8+	c #711B2C",
"9+	c #661626",
"0+	c #4F0D1C",
"a+	c #3A1022",
"b+	c #231226",
"c+	c #4F0E1C",
"d+	c #3E0E1F",
"e+	c #3E0F20",
"f+	c #031327",
"g+	c #071227",
"h+	c #0A1226",
"i+	c #321022",
"j+	c #3F0E1F",
"k+	c #3E0F1F",
"l+	c #3D0E1F",
"m+	c #3F0F1F",
"n+	c #400F1F",
"o+	c #3A0F21",
"p+	c #041327",
"q+	c #1F1226",
"r+	c #3F172A",
"s+	c #43182B",
"t+	c #42182B",
"u+	c #41182C",
"v+	c #3A1629",
"w+	c #1A1327",
"x+	c #231225",
"y+	c #341427",
"z+	c #151327",
"A+	c #5A1525",
"B+	c #812438",
"C+	c #89273B",
"D+	c #88263B",
"E+	c #772032",
"F+	c #4C1122",
"G+	c #1C1327",
"H+	c #691A2C",
"I+	c #87263A",
"J+	c #181327",
"K+	c #5E1728",
"L+	c #8E273B",
"M+	c #791F31",
"N+	c #4E1324",
"O+	c #211226",
"P+	c #6D1B2D",
"Q+	c #1D1327",
"R+	c #5A182A",
"S+	c #802134",
"T+	c #461628",
"U+	c #591829",
"V+	c #721B2C",
"W+	c #5C1D30",
"X+	c #742236",
"Y+	c #46182C",
"Z+	c #92283D",
"`+	c #942A3F",
" @	c #751D2F",
".@	c #59182A",
"+@	c #94293F",
"@@	c #711B2D",
"#@	c #400E1F",
"$@	c #7E2133",
"%@	c #7F2134",
"&@	c #7A1F31",
"*@	c #591120",
"=@	c #4D0E1D",
"-@	c #530D1B",
";@	c #500E1D",
">@	c #540E1D",
",@	c #4C0E1E",
"'@	c #3D1021",
")@	c #460F1F",
"!@	c #4C0E1D",
"~@	c #161327",
"{@	c #201326",
"]@	c #3B1022",
"^@	c #500D1C",
"/@	c #510D1B",
"(@	c #301124",
"_@	c #1B1327",
":@	c #1F1326",
"<@	c #440F1F",
"[@	c #1F1225",
"}@	c #331023",
"|@	c #351123",
"1@	c #361123",
"2@	c #2F1123",
"3@	c #151226",
"4@	c #281124",
"5@	c #4F192C",
"6@	c #391225",
"7@	c #0F1327",
"8@	c #121327",
"9@	c #421527",
"0@	c #101327",
"                                                            . .     . . . . . . . . . . . . . . . . . . . . . . . . . . . . . . ",
"                                                          . . .       . . . . . . . . . . . . . . . . . . . . . . . . . . . . . ",
"                                                        . . . .         . . . . . . . . . . . . . . . . . . . . . . . . . . . . ",
"                                                      . . . . .           . . . . . . . . . . . . . . . . . . . . . . . . . . . ",
"                                                    . . . . . .             . . . . . . . . . . . . . . . . . . . . . . . . . . ",
"                                                  . . . . . . .               . . . . . . . . . . . . . . . . . . . . . . . . . ",
"                                                . . . . . . . .                 . . . . . . . . . . . . . . . . . . . . . . . . ",
"                            + @ # # # # # # # # # # # # @ + . .       $ % # # # # # # # # # # # # # & . . . . . . & # # # # # # ",
"                          * = - ; ; ; ; ; ; ; ; ; ; ; ; - = * .     > , ' ) ; ; ; ; ; ; ; ; ; ; ; ) ! ~ { . . { ~ ! ) ; ; ; ; ; ",
"                        * ] ^ / / / / / / / / / / / / / / ^ ] *   ( _ : < / / / / / / / / / / / / / [ } | $ $ | } [ / / / / / / ",
"                      + = ^ / 1 1 1 1 1 1 1 1 1 1 1 1 1 1 / ^ = 2 3 4 1 1 1 1 1 1 1 1 1 1 1 1 1 1 1 / 5 6 7 7 6 5 / 1 1 1 1 1 1 ",
"                      @ - / 1 1 1 1 1 1 1 1 1 1 1 1 1 1 1 1 / - 8 9 1 1 1 1 1 1 1 1 1 1 1 1 1 1 1 1 1 1 0 a a 0 1 1 1 1 1 1 1 1 ",
"                      # ; / 1 1 1 1 1 1 1 1 1 1 1 1 1 1 1 1 / ; b c / 1 1 1 1 1 1 1 1 1 1 1 1 1 1 1 1 1 d e e d 1 1 1 1 1 1 1 1 ",
"                      # ) / 1 1 1 1 1 1 1 1 1 1 1 1 1 1 1 1 / ) b f / 1 1 1 1 1 1 1 1 1 1 1 1 1 1 1 1 1 g h h g 1 1 1 1 1 1 1 1 ",
"                      & ! [ / 1 1 1 1 1 1 1 1 1 1 1 1 1 1 / [ ! i j ^ 1 1 1 1 1 1 1 1 1 1 1 1 1 1 1 1 k l m m l k 1 1 1 1 1 1 1 ",
"                        ~ } 5 1 1 1 1 1 1 1 1 1 1 1 1 1 1 5 } n o p q r g 1 1 1 1 1 1 1 1 1 1 1 1 1 k s t u u t s k 1 1 1 1 1 1 ",
"                        { | 6 0 d d d d d d d d d d d d 0 6 | o v w x y z g d d d d d d d d d d d g l t A B B A t l g d d d d d ",
"                          C D a e a h E F F F F E h a e a D G H H I J K L h a h E F F F F F E a a h M N O P P O N M h a a E F F ",
"      Q R F F F F F F F F F E a a h M N O P P O N M h a a E F F F F F E h a h L K J I H H G D a e a h E F F F F E h a e a D G H ",
"    x y z g d d d d d d d d d d d g l t A B B A t l g d d d d d d d d d d d g z y x w v o | 6 0 d d d d d d d d d d d d 0 6 S T ",
"  U q r g 1 1 1 1 1 1 1 1 1 1 1 1 1 k s t u u t s k 1 1 1 1 1 1 1 1 1 1 1 1 1 g r q p o n } 5 1 1 1 1 1 1 1 1 1 1 1 1 1 1 5 V W ",
"  X ^ 1 1 1 1 1 1 1 1 1 1 1 1 1 1 1 1 k l m m l k 1 1 1 1 1 1 1 1 1 1 1 1 1 1 1 1 ^ j i ! [ / 1 1 1 1 1 1 1 1 1 1 1 1 1 1 / Y Z ",
"  ` / 1 1 1 1 1 1 1 1 1 1 1 1 1 1 1 1 1 g h h g 1 1 1 1 1 1 1 1 1 1 1 1 1 1 1 1 1 / f b ) / 1 1 1 1 1 1 1 1 1 1 1 1 1 1 1 1 1 / ",
"   ./ 1 1 1 1 1 1 1 1 1 1 1 1 1 1 1 1 1 d e e d 1 1 1 1 1 1 1 1 1 1 1 1 1 1 1 1 1 / c b ; / 1 1 1 1 1 1 1 1 1 1 1 1 1 1 1 1 1 1 ",
"  c 1 1 1 1 1 1 1 1 1 1 1 1 1 1 1 1 1 1 0 a a 0 1 1 1 1 1 1 1 1 1 1 1 1 1 1 1 1 1 1 9 8 - / 1 1 1 1 1 1 1 1 1 1 1 1 1 1 1 1 1 ..",
"  +.4 1 1 1 1 1 1 1 1 1 1 1 1 1 1 1 / 5 6 7 7 6 5 / 1 1 1 1 1 1 1 1 1 1 1 1 1 1 1 4 3 2 = ^ / 1 1 1 1 1 1 1 1 1 1 1 1 1 1 / @.#.",
"  $._ : < / / / / / / / / / / / / / [ } | %.%.| } [ / / / / / / / / / / / / / < : _ ( &.* ] ^ / / / / / / / / / / / / / / ^ ] *.",
"    =.-.;.) ; ; ; ; ; ; ; ; ; ; ; ) ! n >.,.,.>.n ! ) ; ; ; ; ; ; ; ; ; ; ; ) ;.-.=.'.'.).!.= - ; ; ; ; ; ; ; ; ; ; ; ; - = !.~.",
"    . {.].b b 8 ].^.# # ^./.(._.b b :.<.[.}.}.[.<.:.b b _.(./.^.# # ^.|.b 1.1.8 2 2.3.4.4.5.6.b 1.1.8 /.^.# # ^./.(.b b 8 7.8.}.",
" . . . .c c f 9.0.a.. . . b.3 9 c c f  . . . . . .f c c 9 3 b.c.d.e.f.g.h.i.j.j.i.i.i.i.i.i.k.j.j.i.l.m.n.o.o.p.m.q.f c c f  . .",
"/ / / / / / / 5 r.s.%.. > _ 4 1 / / / / / / / / / / / / 1 4 _ > t.u.v.w.x.y.z.z.z.z.z.z.z.z.z.z.z.y.A.6 B.C.D.x q ^ / / / / / / ",
"1 1 1 1 1 1 1 1 k r.E.<., : 1 1 1 1 1 1 1 1 1 1 1 1 1 1 1 1 : , F.G.w.H.I.I.I.I.I.I.I.I.I.I.I.I.I.I.I.J.K.L.M.y r 1 1 1 1 1 1 1 ",
"1 1 1 1 1 1 1 1 1 5 9.].;.< 1 1 1 1 1 1 1 1 1 1 1 1 1 1 1 1 < ;.(.h.x.I.I.I.I.I.I.I.I.I.I.I.I.I.I.I.I.N.J.O.L z g 1 1 1 1 1 1 1 ",
"1 1 1 1 1 1 1 1 1 P. .b ) Q.1 1 1 1 1 1 1 1 1 1 1 1 1 1 1 1 Q.) R.S.T.I.I.I.I.I.I.I.I.I.I.I.I.I.I.I.I.I.U.V.h g 1 1 1 1 1 1 1 1 ",
"1 1 1 1 1 1 1 1 1 ^ W.X.! [ / 1 1 1 1 1 1 1 1 1 1 1 1 1 1 / [ ! i l.Y.I.I.I.I.I.I.I.I.I.I.I.I.I.I.I.z.Z.`.R  +l k / 1 1 1 1 1 1 ",
"1 1 1 1 1 1 1 g r .+++@+W #+5 1 1 1 1 1 1 1 1 1 1 1 1 1 1 5 #+W @+$+%+J.N.I.I.I.I.I.I.I.I.I.I.I.I.I.Z.&+*+=+=+-+;+k 1 1 1 1 1 1 ",
"< < < < < < g r >+,+'+)+!+~+r.k ..< < < < < < < < < < ..k r.~+!+)+{+]+^+J.U.Z.Z.Z.Z.Z.Z.Z.Z.Z.Z.Z.U./+(+_+> > :+<+: g < < < < < ",
"[+[+[+[+[+[+[+}+,+|+1+2+> 3+4+5+[+[+[+[+[+[+[+[+[+[+[+[+5+4+3+> 2+1+6+]+7+8+8+8+8+8+8+8+8+8+8+8+8+8+9+0+a+b+b+a+c+(+[+[+[+[+[+[+",
"6+6+|+{+d+d+d+d+e+G f+g+h+i+j+d+d+d+j+{+6+6+6+6+{+j+d+d+d+j+i+h+g+f+G k+d+l+l+d+m+n+6+6+n+n+m+l+l+l+j+o+n.p+p+n.o+j+d+d+d+m+|+6+",
"v v q+F.r+s+s+s+s+t+u+u+u+t+s+s+s+s+v+)+~.v v ~.)+v+s+s+s+s+t+u+u+u+t+s+s+s+s+r+F.q+v v w+x+y+t+s+s+s+t+u+u+u+u+t+s+s+s+t+y+x+w+",
"z+z+> A+B+C+D+D+D+D+D+D+D+D+D+D+D+C+E+F+o '.'.o F+E+C+D+D+D+D+D+D+D+D+D+D+D+C+B+A+> z+z+G+* H+I+D+D+D+D+D+D+D+D+D+D+D+D+I+H+* ~.",
"J+( K+/+Z.z.z.z.z.z.z.z.z.z.z.z.z.z.L+M+N+u.u.N+M+L+z.z.z.z.z.z.z.z.z.z.z.z.z.Z./+K+i+O+* P+A.z.z.z.z.z.z.z.z.z.z.z.z.z.z.A.P+*.",
"Q+R+S+I.I.I.I.I.I.I.I.I.I.I.I.I.I.I.z.x.w.T+T+w.x.z.I.I.I.I.I.I.I.I.I.I.I.I.I.I.I.S+U+6.H+A.z.I.I.I.I.I.I.I.I.I.I.I.I.I.I.z.Y.V+",
"3.j.I.I.I.I.I.I.I.I.I.I.I.I.I.I.I.I.I.I.H.W+W+H.I.I.I.I.I.I.I.I.I.I.I.I.I.I.I.I.I.I.X+Y+I+z.I.I.I.I.I.I.I.I.I.I.I.I.I.I.I.I.U.Z+",
"3.j.I.I.I.I.I.I.I.I.I.I.I.I.I.I.I.I.I.I.H.W+W+H.I.I.I.I.I.I.I.I.I.I.I.I.I.I.I.I.I.I.X+Y+I+z.I.I.I.I.I.I.I.I.I.I.I.I.I.I.I.I.U.Z+",
"Q+R+S+I.z.z.z.z.z.z.z.z.z.z.z.z.z.z.`+x. @T+T+ @x.`+z.z.z.z.z.z.z.z.z.z.z.z.z.z.I.S+.@6.H+Y.+@z.z.z.z.z.z.z.z.z.z.z.z.z.z.+@Y.@@",
"v #@9+$@S+%@%@%@%@%@%@%@%@%@%@%@%@%@S+&@*@i+i+*@&@S+%@%@%@%@%@%@%@%@%@%@%@%@%@S+$@9+n+)+=@8+S+%@%@%@%@%@%@%@%@%@%@%@%@%@%@S+8+-@",
"v !.;@,+,+,+,+,+,+,+,+,+,+,+,+,+,+,+,+>@,@u u ,@>@,+,+,+,+,+,+,+,+,+,+,+,+,+,+,+,+;@'@o )@_+,+,+,+,+,+,+,+,+,+,+,+,+,+,+,+,+_+!@",
"~@{@]@^@/@/@/@/@/@/@/@/@/@/@/@/@/@/@/@!@(@_@_@(@!@/@/@/@/@/@/@/@/@/@/@/@/@/@/@/@^@]@:@v >.<@/@/@/@/@/@/@/@/@/@/@/@/@/@/@/@/@<@T ",
"c.I [@=.}@> }@> =+|@1@1@1@|@=+> > > }@2@3@P P 3@2@}@> > > =+|@1@1@1@|@=+> }@> }@=.[@I H H 4@}@> > }@=+|@|@1@1@|@|@=+}@> > }@4@H ",
"F F F E E E F 5@6@C.7@8@8@4@9@h F E E F F F F F F E E F h 9@4@8@8@7@C.6@5@F E E E F F F F F E E E F m (@J+0@0@J+(@m F E E E F F ",
"d d d d d d g z y x w v o | 6 0 d d d d d d d d d d d d 0 6 | o v w x y z g d d d d d d d d d d d g l t A B B A t l g d d d d d ",
"1 1 1 1 1 1 1 g r q p o n } 5 1 1 1 1 1 1 1 1 1 1 1 1 1 1 5 } n o p q r g 1 1 1 1 1 1 1 1 1 1 1 1 1 k s t u u t s k 1 1 1 1 1 1 ",
"1 1 1 1 1 1 1 1 1 ^ j i ! [ / 1 1 1 1 1 1 1 1 1 1 1 1 1 1 / [ ! i j ^ 1 1 1 1 1 1 1 1 1 1 1 1 1 1 1 1 k l m m l k 1 1 1 1 1 1 1 ",
"1 1 1 1 1 1 1 1 1 / f b ) / 1 1 1 1 1 1 1 1 1 1 1 1 1 1 1 1 / ) b f / 1 1 1 1 1 1 1 1 1 1 1 1 1 1 1 1 1 g h h g 1 1 1 1 1 1 1 1 ",
"1 1 1 1 1 1 1 1 1 / c b ; / 1 1 1 1 1 1 1 1 1 1 1 1 1 1 1 1 / ; b c / 1 1 1 1 1 1 1 1 1 1 1 1 1 1 1 1 1 d e e d 1 1 1 1 1 1 1 1 ",
"1 1 1 1 1 1 1 1 1 1 9 8 - / 1 1 1 1 1 1 1 1 1 1 1 1 1 1 1 1 / - 8 9 1 1 1 1 1 1 1 1 1 1 1 1 1 1 1 1 1 1 0 a a 0 1 1 1 1 1 1 1 1 ",
"1 1 1 1 1 1 1 1 1 4 3 2 = ^ / 1 1 1 1 1 1 1 1 1 1 1 1 1 1 / ^ = 2 3 4 1 1 1 1 1 1 1 1 1 1 1 1 1 1 1 / 5 6 7 7 6 5 / 1 1 1 1 1 1 ",
"/ / / / / / / < : _ ( . * ] ^ / / / / / / / / / / / / / / ^ ] * . ( _ : < / / / / / / / / / / / / / [ } | $ $ | } [ / / / / / / ",
"; ; ; ; ; ; ) ' , > . . . * = - ; ; ; ; ; ; ; ; ; ; ; ; - = *   . . > , ' ) ; ; ; ; ; ; ; ; ; ; ; ) ! ~ {     { ~ ! ) ; ; ; ; ; ",
"# # # # # # # % $ . . . . . + @ # # # # # # # # # # # # @ +     . . . $ % # # # # # # # # # # # # # &             & # # # # # # ",
". . . . . . . . . . . . . . . . . . . . . . . . . . . .         . . . .                                                         ",
". . . . . . . . . . . . . . . . . . . . . . . . . . . . .       . . .                                                           ",
". . . . . . . . . . . . . . . . . . . . . . . . . . . . . .     . .                                                             "};
