/* XPM */
static char *_3e4dc8f610f430fe480d29e01f73f8dDp1JOc2KWfLLydfY[] = {
/* columns rows colors chars-per-pixel */
"64 64 2 1 ",
"  c #BCCBD5",
". c #AABACE",
/* pixels */
"               ................                ................ ",
"              ................                ................  ",
"             ................                ................   ",
"            ................                ................    ",
"           ................                ................     ",
"          ................                ................      ",
"         ................                ................       ",
"        ................                ................        ",
"       ................                ................         ",
"      ................                ................          ",
"     ................                ................           ",
"    ................                ................            ",
"   ................                ................             ",
"  ................                ................              ",
" ................                ................               ",
"................                ................                ",
"...............                ................                .",
"..............                ................                ..",
".............                ................                ...",
"............                ................                ....",
"...........                ................                .....",
"..........                ................                ......",
".........                ................                .......",
"........                ................                ........",
".......                ................                .........",
"......                ................                ..........",
".....                ................                ...........",
"....                ................                ............",
"...                ................                .............",
"..                ................                ..............",
".                ................                ...............",
"                ................                ................",
"               ................                ................ ",
"              ................                ................  ",
"             ................                ................   ",
"            ................                ................    ",
"           ................                ................     ",
"          ................                ................      ",
"         ................                ................       ",
"        ................                ................        ",
"       ................                ................         ",
"      ................                ................          ",
"     ................                ................           ",
"    ................                ................            ",
"   ................                ................             ",
"  ................                ................              ",
" ................                ................               ",
"................                ................                ",
"...............                ................                .",
"..............                ................                ..",
".............                ................                ...",
"............                ................                ....",
"...........                ................                .....",
"..........                ................                ......",
".........                ................                .......",
"........                ................                ........",
".......                ................                .........",
"......                ................                ..........",
".....                ................                ...........",
"....                ................                ............",
"...                ................                .............",
"..                ................                ..............",
".                ................                ...............",
"                ................                ................"
};
