/* XPM */
static char *xpm_data[] = {
"64 64 9 1",
"B c #211F30"
"C c #CC3048"
"D c #CE8B16"
"E c #F7EC8A"
"F c #E1CA33"
"G c #FFFFFF"
"H c #6CD9F1"
"I c #BA570B"
"  c None",
"AAAAAAAAAAAAAAAAAAAAAAAABBBBAAAAAAAAAAAAAAAAAAAAAAAAAAAAAAAAAAAA",
"AAAAAAAAAAAAAAAAAAAAAAAABBBBAAAAAAAAAAAAAAAAAAAAAAAAAAAAAAAAAAAA",
"AAAAAAAAAAAAAAAAAAAAAAAABBCCBBAAAAAAAAAAAAAAAAAAAAAAAAAAAAAAAAAA",
"AAAAAAAAAAAAAAAAAAAAAAAABBCCBBAAAAAAAAAAAAAAAAAAAAAAAAAAAAAAAAAA",
"AAAAAAAAAAAAAAAAAAAAAAAABBCCBBAAAAAAAAAAAAAAAAAAAAAAAAAAAAAAAAAA",
"AAAAAAAAAAAAAAAAAAAAAAAABBCCBBAAAAAAAAAAAAAAAAAAAAAAAAAAAAAAAAAA",
"AAAAAAAAAAAAAAAAAAAAAAAABBDDBBAAAAAAAAAAAAAAAAAAAAAAAAAAAAAAAAAA",
"AAAAAAAAAAAAAAAAAAAAAAAABBDDBBAAAAAAAAAAAAAAAAAAAAAAAAAAAAAAAAAA",
"AAAAAAAAAAAAAAAAAAAAAAAABBDDBBBBBBBBBBBBBBAAAAAAAAAAAAAAAAAAAAAA",
"AAAAAAAAAAAAAAAAAAAAAAAABBDDBBBBBBBBBBBBBBAAAAAAAAAAAAAAAAAAAAAA",
"AAAAAAAAAAAAAAAAAAAABBBBEEEEFFFFFFFFFFEEEEBBBBAAAAAAAAAAAAAAAAAA",
"AAAAAAAAAAAAAAAAAAAABBBBEEEEFFFFFFFFFFEEEEBBBBAAAAAAAAAAAAAAAAAA",
"AAAAAAAAAAAAAAAAAABBEEEEFFFFFFFFFFFFFFFFFFEEEEBBAAAAAAAAAAAAAAAA",
"AAAAAAAAAAAAAAAAAABBEEEEFFFFFFFFFFFFFFFFFFEEEEBBAAAAAAAAAAAAAAAA",
"AAAAAAAAAAAAAAAABBEEFFFFFFFFFFFFFFFFFFFFFFFFFFEEBBAAAAAAAAAAAAAA",
"AAAAAAAAAAAAAAAABBEEFFFFFFFFFFFFFFFFFFFFFFFFFFEEBBAAAAAAAAAAAAAA",
"AAAAAAAAAAAAAABBEEFFFFFFFFBBBBBBBBBBBBBBBBBBBBFFEEBBAAAAAAAAAAAA",
"AAAAAAAAAAAAAABBEEFFFFFFFFBBBBBBBBBBBBBBBBBBBBFFEEBBAAAAAAAAAAAA",
"AAAAAAAAAAAAAABBFFFFFFFFBBBBBBBBBBBBBBBBBBBBBBBBFFEEBBAAAAAAAAAA",
"AAAAAAAAAAAAAABBFFFFFFFFBBBBBBBBBBBBBBBBBBBBBBBBFFEEBBAAAAAAAAAA",
"AAAAAAAAAAAABBDDFFFFFFBBBBBBBBBBBBBBBBBBBBBBBBBBBBFFBBAAAAAAAAAA",
"AAAAAAAAAAAABBDDFFFFFFBBBBBBBBBBBBBBBBBBBBBBBBBBBBFFBBAAAAAAAAAA",
"AAAAAAAAAAAABBDDFFFFFFBBBBGGGGBBBBBBBBBBBBBBGGGGBBFFBBAAAAAAAAAA",
"AAAAAAAAAAAABBDDFFFFFFBBBBGGGGBBBBBBBBBBBBBBGGGGBBFFBBAAAAAAAAAA",
"AAAAAAAAAAAABBDDFFFFFFBBBBHHHHBBBBBBBBBBBBBBHHHHBBFFBBAAAAAAAAAA",
"AAAAAAAAAAAABBDDFFFFFFBBBBHHHHBBBBBBBBBBBBBBHHHHBBFFBBAAAAAAAAAA",
"AAAAAAAAAAAABBDDFFFFFFBBBBGGGGBBBBBBBBBBBBBBGGGGBBFFBBAAAAAAAAAA",
"AAAAAAAAAAAABBDDFFFFFFBBBBGGGGBBBBBBBBBBBBBBGGGGBBFFBBAAAAAAAAAA",
"AAAAAAAAAAAABBDDFFFFFFBBBBBBBBBBBBBBBBBBBBBBBBBBBBFFBBAAAAAAAAAA",
"AAAAAAAAAAAABBDDFFFFFFBBBBBBBBBBBBBBBBBBBBBBBBBBBBFFBBAAAAAAAAAA",
"AAAAAAAAAAAABBDDFFFFFFFFBBBBBBBBBBBBBBBBBBBBBBBBFFFFBBAAAAAAAAAA",
"AAAAAAAAAAAABBDDFFFFFFFFBBBBBBBBBBBBBBBBBBBBBBBBFFFFBBAAAAAAAAAA",
"AAAAAAAAAAAABBDDFFFFFFFFFFBBBBBBBBBBBBBBBBBBBBFFFFBBAAAAAAAAAAAA",
"AAAAAAAAAAAABBDDFFFFFFFFFFBBBBBBBBBBBBBBBBBBBBFFFFBBAAAAAAAAAAAA",
"AAAAAAAAAAAAAABBDDFFFFFFFFFFFFFFFFFFFFFFFFFFFFFFDDBBAAAAAAAAAAAA",
"AAAAAAAAAAAAAABBDDFFFFFFFFFFFFFFFFFFFFFFFFFFFFFFDDBBAAAAAAAAAAAA",
"AAAAAAAAAAAAAAAABBDDDDFFFFFFFFFFFFFFFFFFFFFFFFDDBBAAAAAAAAAAAAAA",
"AAAAAAAAAAAAAAAABBDDDDFFFFFFFFFFFFFFFFFFFFFFFFDDBBAAAAAAAAAAAAAA",
"AAAAAAAAAAAAAAAAAABBBBDDDDFFFFFFDDDDIIIIFFDDBBBBAAAAAAAAAAAAAAAA",
"AAAAAAAAAAAAAAAAAABBBBDDDDFFFFFFDDDDIIIIFFDDBBBBAAAAAAAAAAAAAAAA",
"AAAAAAAAAAAAAAAAAAAABBFFFFFFFFDDFFFFFFFFIIFFBBAAAAAAAAAAAAAAAAAA",
"AAAAAAAAAAAAAAAAAAAABBFFFFFFFFDDFFFFFFFFIIFFBBAAAAAAAAAAAAAAAAAA",
"AAAAAAAAAAAAAAAAAABBFFFFFFFFDDFFFFFFFFFFIIFFFFBBAAAAAAAAAAAAAAAA",
"AAAAAAAAAAAAAAAAAABBFFFFFFFFDDFFFFFFFFFFIIFFFFBBAAAAAAAAAAAAAAAA",
"AAAAAAAAAAAAAAAABBFFFFFFFFFFDDFFFFFFFFFFIIFFFFBBBBAAAAAAAAAAAAAA",
"AAAAAAAAAAAAAAAABBFFFFFFFFFFDDFFFFFFFFFFIIFFFFBBBBAAAAAAAAAAAAAA",
"AAAAAAAAAAAAAABBFFFFFFFFFFFFDDFFFFFFFFFFIIFFFFBBDDBBAAAAAAAAAAAA",
"AAAAAAAAAAAAAABBFFFFFFFFFFFFDDFFFFFFFFFFIIFFFFBBDDBBAAAAAAAAAAAA",
"AAAAAAAAAAAAAABBFFFFDDBBFFFFDDFFFFFFFFFFIIFFFFBBDDBBAAAAAAAAAAAA",
"AAAAAAAAAAAAAABBFFFFDDBBFFFFDDFFFFFFFFFFIIFFFFBBDDBBAAAAAAAAAAAA",
"AAAAAAAAAAAAAABBDDDDBBFFFFFFDDFFFFFFFFFFIIFFFFFFBBBBAAAAAAAAAAAA",
"AAAAAAAAAAAAAABBDDDDBBFFFFFFDDFFFFFFFFFFIIFFFFFFBBBBAAAAAAAAAAAA",
"AAAAAAAAAAAAAAAABBBBDDFFFFFFBBBBBBBBBBBBBBFFFFFFBBAAAAAAAAAAAAAA",
"AAAAAAAAAAAAAAAABBBBDDFFFFFFBBBBBBBBBBBBBBFFFFFFBBAAAAAAAAAAAAAA",
"AAAAAAAAAAAAAAAAAABBDDFFFFDDBBAAAAAAAABBDDFFFFDDBBAAAAAAAAAAAAAA",
"AAAAAAAAAAAAAAAAAABBDDFFFFDDBBAAAAAAAABBDDFFFFDDBBAAAAAAAAAAAAAA",
"AAAAAAAAAAAAAAAAAABBDDFFFFBBAAAAAAAAAABBDDDDDDBBAAAAAAAAAAAAAAAA",
"AAAAAAAAAAAAAAAAAABBDDFFFFBBAAAAAAAAAABBDDDDDDBBAAAAAAAAAAAAAAAA",
"AAAAAAAAAAAAAAAAAABBDDFFFFBBAAAAAAAAAAAABBBBBBAAAAAAAAAAAAAAAAAA",
"AAAAAAAAAAAAAAAAAABBDDFFFFBBAAAAAAAAAAAABBBBBBAAAAAAAAAAAAAAAAAA",
"AAAAAAAAAAAAAAAAAABBDDDDBBAAAAAAAAAAAAAAAAAAAAAAAAAAAAAAAAAAAAAA",
"AAAAAAAAAAAAAAAAAABBDDDDBBAAAAAAAAAAAAAAAAAAAAAAAAAAAAAAAAAAAAAA",
"AAAAAAAAAAAAAAAAAAAABBBBAAAAAAAAAAAAAAAAAAAAAAAAAAAAAAAAAAAAAAAA",
"AAAAAAAAAAAAAAAAAAAABBBBAAAAAAAAAAAAAAAAAAAAAAAAAAAAAAAAAAAAAAAA",
};