/* XPM */
static char *result[] = {
/* columns rows colors chars-per-pixel */
"48 48 8 1 ",
"  c #211F30",
". c #843346",
"X c #A14744",
"o c #B96E54",
"O c #CE8B16",
"+ c #E1CA33",
"@ c #F7EC8A",
"# c None",
/* pixels */
"################################################",
"################################################",
"################################################",
"################################################",
"################################################",
"################################################",
"################################################",
"####################      ######################",
"################### OO@+++ #####################",
"################### ..+OOO+ ####################",
"################### ..+OOO+@ ###################",
"##############      ..+OO++++ ##################",
"############# OO@++++++O+++OO+ #################",
"############# ..+OOOOOO+++OOO+@ ################",
"############# ..+OOOOO+++OOO+++@ ###############",
"############# ..+OOOO+++OOO+++++ ###############",
"############# ..+OOO+++OOO+++++O ###############",
"############# ..+OO+++OOO+++++OO ###############",
"############# ..+O+++OOO+++++OO ################",
"############# ..++++OOO+++++OO #################",
"##############        +++++OO ##################",
"################### ..++++OO ###################",
"################### ..+++OO ####################",
"################### ..++OO #####################",
"####################      ######################",
"###################### oX ######################",
"###################### Xo ######################",
"###################### oo ######################",
"###################### oo ######################",
"###################### oo ######################",
"###################### oo ######################",
"###################### oo ######################",
"###################### oo ######################",
"###################### oX ######################",
"###################### Xo ######################",
"###################### oo ######################",
"###################### oX ######################",
"###################### XX ######################",
"###################### X. ######################",
"###################### .. ######################",
"#################              #################",
"################# +++++++@@@@+ #################",
"################# O...OOO++++O #################",
"################# O...OOO++++O #################",
"################         ....   ################",
"################ +++++++@@@@@@+ ################",
"################ O...OOO++++++O ################",
"################ O...OOO++++++O ################"
};
