/* XPM */
static char *bb89a30c11a8428ad24acd9c21435b06QZXYofA9cWPf1rX5[] = {
/* columns rows colors chars-per-pixel */
"64 64 2 1 ",
"  c gray76",
". c gray80",
/* pixels */
"................                ................                ",
"................                ................                ",
"................                ................                ",
"................                ................                ",
"................                ................                ",
"................                ................                ",
"................                ................                ",
"................                ................                ",
"................                ................                ",
"................                ................                ",
"................                ................                ",
"................                ................                ",
"................                ................                ",
"................                ................                ",
"................                ................                ",
"................                ................                ",
"................                ................                ",
"................                ................                ",
"................                ................                ",
"................                ................                ",
"................                ................                ",
"................                ................                ",
"................                ................                ",
"................                ................                ",
"................                ................                ",
"................                ................                ",
"................                ................                ",
"................                ................                ",
"................                ................                ",
"................                ................                ",
"................                ................                ",
"................                ................                ",
"................                ................                ",
"................                ................                ",
"................                ................                ",
"................                ................                ",
"................                ................                ",
"................                ................                ",
"................                ................                ",
"................                ................                ",
"................                ................                ",
"................                ................                ",
"................                ................                ",
"................                ................                ",
"................                ................                ",
"................                ................                ",
"................                ................                ",
"................                ................                ",
"................                ................                ",
"................                ................                ",
"................                ................                ",
"................                ................                ",
"................                ................                ",
"................                ................                ",
"................                ................                ",
"................                ................                ",
"................                ................                ",
"................                ................                ",
"................                ................                ",
"................                ................                ",
"................                ................                ",
"................                ................                ",
"................                ................                ",
"................                ................                "
};
