/* XPM */
static char *_dce653458a241569d61f756cd852515SFhmbeVuh2ax6A54[] = {
/* columns rows colors chars-per-pixel */
"32 32 11 1 ",
"  c #62677A",
". c #858D99",
"X c #B96E54",
"o c #A14744",
"O c #843346",
"+ c #AFBBC3",
"@ c #D8E1E4",
"# c #CF9E6E",
"$ c #211F30",
"% c white",
"& c None",
/* pixels */
"&&&&&&&&&&&&&&&&&&&&&&&&&&&&&&&&",
"&&&&&&&&&&&&&&&&&&&&&&&&&&&&&&&&",
"&&&&&&&&&&&&&&&&&&&&&&&&&&&&&&&&",
"&&&&&&&&&&&&&&&&&&&&&&&&&&&&&&&&",
"&&&&&&&&&&&&&&&&&&&&&&&&&&&&&&&&",
"&&&&&&$$$$$$$$$$$$$$$$$$$$&&&&&&",
"&&&&&$+@@@@@@@%%@@%%%%@@@%$&&&&&",
"&&&&&$. +++++@@++@@@@+++ @$&&&&&",
"&&&&&$.+++++@@++@@@@+++++@$&&&&&",
"&&&&&$$  $$OOOOOOOOOO$$  $$&&&&&",
"&&&&&$@@%$o##oXXXXo##o$@@%$&&&&&",
"&&&&&$++@O####oXXo####O++@$&&&&&",
"&&&&&$++@O#####OO#####O++@$&&&&&",
"&&&&&$++%Oo####o#####oO++@$&&&&&",
"&&&&&$+@%OXo##o#####oXO++@$&&&&&",
"&&&&&$@@%OXXOo#####OXXO++%$&&&&&",
"&&&&&$@@%OXXO#####oOXXO+@%$&&&&&",
"&&&&&$@@@OXo#####o##oXO@@%$&&&&&",
"&&&&&$@+@Oo#####o####oO@@@$&&&&&",
"&&&&&$++@O#####OO#####O@+@$&&&&&",
"&&&&&$++@O####oXXo####O++@$&&&&&",
"&&&&&$++@$o##oXXXXo##o$++@$&&&&&",
"&&&&&$$  $$OOOOOOOOOO$$  $$&&&&&",
"&&&&&$+@@%%@@%%%%@@@@@@@@%$&&&&&",
"&&&&&$. @@++@@@@++++++++ @$&&&&&",
"&&&&&$.@@++@@@@++++++++++@$&&&&&",
"&&&&&&$$$$$$$$$$$$$$$$$$$$&&&&&&",
"&&&&&&&&&&&&&&&&&&&&&&&&&&&&&&&&",
"&&&&&&&&&&&&&&&&&&&&&&&&&&&&&&&&",
"&&&&&&&&&&&&&&&&&&&&&&&&&&&&&&&&",
"&&&&&&&&&&&&&&&&&&&&&&&&&&&&&&&&",
"&&&&&&&&&&&&&&&&&&&&&&&&&&&&&&&&"
};
