/* XPM */
static char *_becc19cea3546eda266d3ad3fe3a0eewYpFrwxd8UkZRAr3[] = {
/* columns rows colors chars-per-pixel */
"32 32 10 1 ",
"  c #CF9E6E",
". c #62677A",
"X c #843346",
"o c #A14744",
"O c #858D99",
"+ c #AFBBC3",
"@ c #D8E1E4",
"# c #211F30",
"$ c white",
"% c None",
/* pixels */
"%%%%%%%%%%%%%%%%%%%%%%%%%%%%%%%%",
"%%%%%%%%%%%%%%%%%%%%%%%%%%%%%%%%",
"%%%%%%%%%%%%%%%%%%%%%%%%%%%%%%%%",
"%%%%%%%%%%%%%%%%%%%%%%%%%%%%%%%%",
"%%%%%%%%%%%%%%%%%%%%%%%%%%%%%%%%",
"%%%%%%########%%%%########%%%%%%",
"%%%%%#+@@@@@@@#%%#$$$$@@@$#%%%%%",
"%%%%%#O.+++++@#%%#@@@+++.@#%%%%%",
"%%%%%#O+++++@@#%%#@@+++++@#%%%%%",
"%%%%%##..##XXX#%%%#XX##..##%%%%%",
"%%%%%#@@$#o  o#%%%#  o#@@$#%%%%%",
"%%%%%#++@X   #%%%%#   X++@#%%%%%",
"%%%%%#++@####%%%%%%####++@#%%%%%",
"%%%%%%###%%%%%%%%%%%%%%###%%%%%%",
"%%%%%%%%%%%%%%%%%%%%%%%%%%%%%%%%",
"%%%%%%###%%%%%%%%%%%%%%%%%%%%%%%",
"%%%%%#@@$#%%%%%%%%%%%%%%%%%%%%%%",
"%%%%%#@@@X#%%%%%%%%%%%%%%%%%%%%%",
"%%%%%#@+@Xo#%%%%%%%%%%%%##%%%%%%",
"%%%%%#++@X  #%%%%%%%%%%#+@#%%%%%",
"%%%%%#++@X  #%%%%%%%%%#++@#%%%%%",
"%%%%%#++@#o #%%%%%%%%%#++@#%%%%%",
"%%%%%##..##X#%%%%%%%%##..##%%%%%",
"%%%%%#+@@$$@@#%%%%%%#@@@@$#%%%%%",
"%%%%%#O.@@++@#%%%%%#++++.@#%%%%%",
"%%%%%#O@@++@@#%%%%%#+++++@#%%%%%",
"%%%%%%#######%%%%%%#######%%%%%%",
"%%%%%%%%%%%%%%%%%%%%%%%%%%%%%%%%",
"%%%%%%%%%%%%%%%%%%%%%%%%%%%%%%%%",
"%%%%%%%%%%%%%%%%%%%%%%%%%%%%%%%%",
"%%%%%%%%%%%%%%%%%%%%%%%%%%%%%%%%",
"%%%%%%%%%%%%%%%%%%%%%%%%%%%%%%%%"
};
