/* XPM */
static char *result[] = {
/* columns rows colors chars-per-pixel */
"16 16 6 1 ",
"  c #CF9E6E",
". c #CE8B16",
"X c #843346",
"o c #963F3E",
"O c #211F30",
"+ c #B96E54",
/* pixels */
"OOXXXXXXXXXXXXOO",
"O+             O",
"Oo+++++++++++++o",
"Oo+++++++++++++o",
"Oo++OOOOOOOOO++o",
"Oo++O....OOOO++o",
"Oo++O...OOOOO++o",
"Oo++O..OOOO.O++o",
"Oo++O.OOOO..O++o",
"Oo++OOOOO...O++o",
"Oo++OOOO....O++o",
"Oo++OOOOOOOOO++o",
"Oo+++++++++++++o",
"Oo+++++++++++++o",
"OXoooooooooooooO",
"OOXXXXXXXXXXXXOO"
};
