/* XPM */
static char *b8910f0393d64b09d76c22a01cb273beIxCAGxY5y7xcFfrg[] = {
/* columns rows colors chars-per-pixel */
"32 32 9 1 ",
"  c #F7EC8A",
". c #BA570B",
"X c white",
"o c #6CD9F1",
"O c #CC3048",
"+ c #CE8B16",
"@ c #E1CA33",
"# c #211F30",
"$ c None",
/* pixels */
"$$$$$$$$$$$$$$$$$$$$$$$$$$$$$$$$",
"$$$$$$$$$$$$$$$$$$$$$$$$$$$$$$$$",
"$$$$$$$$$$$$##$$$$$$$$$$$$$$$$$$",
"$$$$$$$$$$$$#O#$$$$$$$$$$$$$$$$$",
"$$$$$$$$$$$$#O#$$$$$$$$$$$$$$$$$",
"$$$$$$$$$$$$#+#$$$$$$$$$$$$$$$$$",
"$$$$$$$$$$$$#+#######$$$$$$$$$$$",
"$$$$$$$$$$##  @@@@@  ##$$$$$$$$$",
"$$$$$$$$$#  @@@@@@@@@  #$$$$$$$$",
"$$$$$$$$# @@@@@@@@@@@@@ #$$$$$$$",
"$$$$$$$# @@@@##########@ #$$$$$$",
"$$$$$$$#@@@@############@ #$$$$$",
"$$$$$$#+@@@##############@#$$$$$",
"$$$$$$#+@@@##XX#######XX#@#$$$$$",
"$$$$$$#+@@@##oo#######oo#@#$$$$$",
"$$$$$$#+@@@##XX#######XX#@#$$$$$",
"$$$$$$#+@@@##############@#$$$$$",
"$$$$$$#+@@@@############@@#$$$$$",
"$$$$$$#+@@@@@##########@@##$$$$$",
"$$$$$#+#+@@@@@@@@@@@@@@@#++#$$$$",
"$$$$$#+@#++@@@@@@@@@@@@+#++#$$$$",
"$$$$$#+@@##++@@@++..@+###++#$$$$",
"$$$$$$#+@@@@@@@+@@@@.@@#++#$$$$$",
"$$$$$$$###+@@@+@@@@@.@@###$$$$$$",
"$$$$$$$$$#+@@@+@@@@@.@@#$$$$$$$$",
"$$$$$$$$$#+@@@+@@@@@.@@#$$$$$$$$",
"$$$$$$$$$#+@@@+@@@@@.@@#$$$$$$$$",
"$$$$$$$$$$#+@@#####+.@@@#$$$$$$$",
"$$$$$$$$$$$#+++#$$$##@@@#$$$$$$$",
"$$$$$$$$$$$$###$$$$#+@@@#$$$$$$$",
"$$$$$$$$$$$$$$$$$$$$#+@@#$$$$$$$",
"$$$$$$$$$$$$$$$$$$$$$###$$$$$$$$"
};
