/* XPM */
static char *_3f10a78b9ee49bcad981932301cb9c3pf5gyPeAaeRXMJPU[] = {
/* columns rows colors chars-per-pixel */
"64 64 2 1 ",
"  c #9FCC98",
". c #93C596",
/* pixels */
"................................................................",
" .............................................................. ",
"  ............................................................  ",
"   ..........................................................   ",
"    ........................................................    ",
"     ......................................................     ",
"      ....................................................      ",
"       ..................................................       ",
"        ................................................        ",
"         ..............................................         ",
"          ............................................          ",
"           ..........................................           ",
"            ........................................            ",
"             ......................................             ",
"              ....................................              ",
"               ..................................               ",
"                .                              .                ",
"                ..                            ..                ",
"                ...                          ...                ",
"                ....                        ....                ",
"                .....                      .....                ",
"                ......                    ......                ",
"                .......                  .......                ",
"                ........                ........                ",
"                .........              .........                ",
"                ..........            ..........                ",
"                ...........          ...........                ",
"                ............        ............                ",
"                .............      .............                ",
"                ..............    ..............                ",
"                ...............  ...............                ",
"                ................................                ",
"                ................................                ",
"                ...............  ...............                ",
"                ..............    ..............                ",
"                .............      .............                ",
"                ............        ............                ",
"                ...........          ...........                ",
"                ..........            ..........                ",
"                .........              .........                ",
"                ........                ........                ",
"                .......                  .......                ",
"                ......                    ......                ",
"                .....                      .....                ",
"                ....                        ....                ",
"                ...                          ...                ",
"                ..                            ..                ",
"                .                              .                ",
"               ..................................               ",
"              ....................................              ",
"             ......................................             ",
"            ........................................            ",
"           ..........................................           ",
"          ............................................          ",
"         ..............................................         ",
"        ................................................        ",
"       ..................................................       ",
"      ....................................................      ",
"     ......................................................     ",
"    ........................................................    ",
"   ..........................................................   ",
"  ............................................................  ",
" .............................................................. ",
"................................................................"
};
