/* XPM */
static char * pj_with_bg2_xpm[] = {
"64 64 81 1",
" 	c #D5CC9E",
".	c #BBB38C",
"+	c #77715D",
"@	c #211F30",
"#	c #D9D4A3",
"$	c #686354",
"%	c #A49D7C",
"&	c #C6C195",
"*	c #D3CE9F",
"=	c #CC3048",
"-	c #CD4750",
";	c #6B6857",
">	c #9A9676",
",	c #C6C296",
"'	c #797660",
")	c #BFBA90",
"!	c #77745F",
"~	c #BEBA90",
"{	c #7A7760",
"]	c #BFBB91",
"^	c #BA570B",
"/	c #CE8B16",
"(	c #A7A37F",
"_	c #BCB48C",
":	c #BAB28A",
"<	c #BAB289",
"[	c #C6C194",
"}	c #464340",
"|	c #77725E",
"1	c #75705C",
"2	c #979173",
"3	c #CFC79A",
"4	c #C2BA90",
"5	c #BFBA8F",
"6	c #BDB98E",
"7	c #D09D4E",
"8	c #E1CA33",
"9	c #CF9A4C",
"0	c #C2BA91",
"a	c #E0CB43",
"b	c #F7EC8A",
"c	c #E0CA40",
"d	c #CF9A4B",
"e	c #D0C79A",
"f	c #D09C4E",
"g	c #D4CF9F",
"h	c #E1CB3F",
"i	c #E0CA3E",
"j	c #C07C4C",
"k	c #000000",
"l	c #BEB98E",
"m	c #C07D4C",
"n	c #BC642C",
"o	c #6CD9F1",
"p	c #FFFFFF",
"q	c #BBB38B",
"r	c #CE902E",
"s	c #C07A4A",
"t	c #C3BA91",
"u	c #BF7949",
"v	c #BC6227",
"w	c #BC6329",
"x	c #D0C79B",
"y	c #989173",
"z	c #6A6656",
"A	c #43403F",
"B	c #444240",
"C	c #6C6958",
"D	c #9B9777",
"E	c #6A6756",
"F	c #C07B4B",
"G	c #CE902F",
"H	c #CF9131",
"I	c #C17E4E",
"J	c #CE8F2C",
"K	c #3F3D3D",
"L	c #413E3E",
"M	c #696454",
"N	c #42403F",
"O	c #BC632A",
"P	c #CF902D",
"                       .+@@+. ##  ##############################",
"                       .+@@$%&*#   #############################",
"                       .+@=-;>,#    ############################",
"                       .+@==@')#     ###########################",
"                       .+@==@!~#      ##########################",
"                       .+@==@{]#       #########################",
"                       .'^^^^')#        ########################",
"                       ]{^//^;()_.....:<:[*#####################",
"                      #)'^//^};'|++++++1+2&#####################",
"                   3456(7/8//^^^^^^^^^///9%65[*#################",
"                   0>{!7abbb8888888888bbbcd1{>&#################",
"                 e4(f//8bbbb8888888888bbbb8//f([g###############",
"                 4>fhbbb888888888888888888bbbif>[###############",
"               e4(f8bbbb888888888888888888bbbb8f([g#############",
"               4>fhb88888888888888888888888888bif>[#############",
"             30(f8bb88888888888888888888888888bb8f([g###########",
"             4>fhb88888888/^^^^^^^^^^^^^^^^^^/88bif>[###########",
"             5{/bb8888888/^@@@@@@@@@@@@@@@@@@^/8bb8f(&*#########",
"            #~!^88888888/^@@@@@@@@@@@@@@@@@@@@^/88bif>[#########",
"           *&(j/8888888/^@@@@@@@@@@@@@@@@@@@@k@^/8bb/'l#########",
"          #,>mn/888888/^@@@@@@@@@@@@@@@@@@@@@@@@^/88^1~#########",
"         ##)'^//888888^@@@=oo=@@@@@@@@@@@@@@=oo=@^88^+.#########",
"        ###~!^//888888^@@=bppb=@@@@@@@@@@@@=bppb=^88^+. ########",
"       ####)'^//888888^@@oppppo@@@@@@@@@@@@oppppo^88^+.  #######",
"      #####)'^//888888^@@oooooo@@@@@@@@@@@@oooooo^88^+.   ######",
"     ######)'^//888888^@@oooooo@@@@@@@@@@@@oooooo^88^+.    #####",
"    #######)'^//888888^@@oppppo@@@@@@@@@@@@oppppo^88^+.     ####",
"   ########)'^//888888^@@=bppb=@@@@@@@@@@@@=bppb=^88^+.      ###",
"  #########)'^//888888^@@@=oo=@@@@@@@@@@@@@@=oo=@^88^+.       ##",
" ##########)'^//888888/^@@@@@@@@@@@@@@@@@@@@@@@@^/88^1q        #",
"###########)'^//8888888/^@@@@@@@@@@@@@@@@@@@@k@^/888^+.         ",
"###########~!^//88888888/^@@@@@@@@@@@@@@@@@@@@^/888rs2t         ",
"           .+^//888888888/^@@@@@@@@@@@@@@@@@@^/888/j(&*#########",
"           t2uv/8888888888/^^^^^^^^^^^^^^^^^^/888/^!~###########",
"#          30%u^/88888888888888888888888888888888/^{]########## ",
"##           t2uv/888888888888888888888888888888/wj>,#########  ",
"###          xt%u^///88888888888888888888888888/^j(&*########   ",
"####           t2uv///88888888888888888888888//wj>,#########    ",
"#####          xt%u^^^///88888888///////888//^^j(,g########     ",
"######           tyzA^///8888888/////////8//^BCD,#########      ",
"#######          xt%$^/88888888/8888888///8/^E(,g########       ",
"########         xt%u/88888888/888888888//88/j(,g#######        ",
"#########        tyFG88888888/8888888888//888HID,######         ",
"##########     xt%u/88888888//8888888888//8888^E(,g###          ",
"###########    t2uJ888888888//8888888888//8888^KE>,##           ",
"############ 30%u/8888888888//8888888888//8888^@@j(&3           ",
"#############t2uJ88888888888//8888888888//8888^@^wj2t           ",
"#############)+^888888888888//8888888888//8888^^//^+.           ",
"#############~!^88888///8888//8888888888//8888^^//^1q           ",
"#############~!^/888/^^/8888//8888888888//8888/^^^@1q           ",
"#############)'^////^^/88888//8888888888//88888/^@@+.           ",
"#############,>jw//^^/888888///88888888/^/888888^LM2t           ",
"#############*&(j^^^^/888888/^^^^^^^^^^^^^888888^$%03           ",
"###############,>;N^//88888/^L$+{''{';}@@/88888/^1q             ",
"###############g,(E^//88888/^M%.]))])(;@^/88888/^|_             ",
"#################)'^//8888/Os2t #####~!^//8888/vu2t             ",
"#################]{^//8888/u%tx #####]{^//////^u%03             ",
"#################)'^//8888^1q   #####,>jv////vu2t               ",
"#################)'^//8888^|_   #####*&%u^^^^u%tx               ",
"#################~!^//888Pu2t   ###### 02+11+20                 ",
"#################)'^/////j(03   #####  3t.qq.t3                 ",
"#################,>mn//nm>,#    ####                            ",
"#################*&(j^^j(,g##   ###                             ",
"###################)'@@')#####  ##                              "};
